<svg width="100" height="31" viewBox="0 0 100 31" fill="none" xmlns="http://www.w3.org/2000/svg">
<g clip-path="url(#clip0_0_531)">
<path d="M0.149055 3.05785L5.81285 6.26196L11.4758 3.05785L5.81199 0L0.148193 3.05785H0.149055Z" fill="#099170"/>
<path d="M18.4802 6.55274L23.994 9.61059L29.6578 6.55274L23.994 3.34863L18.4802 6.55274Z" fill="#FFDC44"/>
<path d="M0 23.882L11.6241 30.4348V24.1729L5.51379 20.6788V6.84449L0 3.64038V23.8829V23.882Z" fill="#099170"/>
<path d="M24.2923 10.1931V16.6013L29.806 13.3972L29.7914 7.13525L24.2914 10.1931H24.2923ZM12.2207 24.1728V30.4348L23.6957 23.882V17.62L12.2207 24.1728Z" fill="#FFDC44"/>
<path d="M6.11035 6.8445V19.9501L11.6241 16.7459V3.64124L6.11035 6.84534V6.8445Z" fill="#E21B30"/>
<path d="M18.1812 13.3972L23.6958 16.6013V10.1931L18.182 7.13525V13.3972H18.1812Z" fill="#FFDC44"/>
<path d="M6.33374 20.4598L11.9225 23.5903L23.3984 17.1103L17.8837 13.8343L6.33374 20.4589V20.4598Z" fill="#E21B30"/>
<path fill-rule="evenodd" clip-rule="evenodd" d="M40.4518 3.34949V15.5445H45.0398V17.6386H38.0027V3.34949H40.4518ZM53.5949 9.417V8.14297H55.8889V17.6691H53.5958V16.3942C53.2854 16.8794 52.851 17.2438 52.2622 17.5169C51.723 17.7793 51.1287 17.9142 50.5268 17.9108C49.7829 17.9108 49.101 17.7899 48.4803 17.5169C47.8604 17.2742 47.3337 16.8794 46.8682 16.4246C46.4346 15.9698 46.063 15.4236 45.8458 14.8166C45.6003 14.2084 45.474 13.5602 45.4734 12.906C45.4734 12.2381 45.5975 11.6007 45.8458 10.9945C46.0822 10.4009 46.4292 9.85567 46.8691 9.38657C47.3337 8.93173 47.8604 8.53693 48.4811 8.29429C49.1001 8.02123 49.7829 7.89949 50.5268 7.89949C51.1156 7.89949 51.6734 8.02123 52.2622 8.29429C52.851 8.56736 53.2854 8.93173 53.5949 9.417ZM53.4096 14.0583C53.5648 13.6948 53.626 13.3 53.626 12.9052C53.6322 12.5108 53.5586 12.1192 53.4096 11.7529C53.2854 11.3893 53.0682 11.085 52.8208 10.7823C52.5725 10.5093 52.2622 10.2962 51.8898 10.1145C51.5083 9.95261 51.0968 9.86999 50.6811 9.87183C50.2475 9.87183 49.8449 9.96314 49.5035 10.1145C49.1622 10.2666 48.8527 10.5093 48.6044 10.7823C48.3561 11.0546 48.1389 11.3885 48.0156 11.7529C47.8915 12.1164 47.7984 12.5112 47.7984 12.906C47.7984 13.3 47.8604 13.6939 47.9846 14.0583C48.1087 14.4218 48.3251 14.7558 48.5734 15.0288C48.8217 15.3019 49.132 15.5149 49.4725 15.6967C49.813 15.8489 50.2165 15.9393 50.6501 15.9393C51.0846 15.9393 51.4872 15.848 51.8596 15.6967C52.2001 15.5445 52.5104 15.3332 52.7898 15.0288C53.0682 14.7558 53.2544 14.4227 53.4096 14.0583ZM57.7492 17.6682V8.14381H64.0104V10.3275H60.0432V17.6691H57.7492V17.6682ZM72.3803 9.417V8.14297H74.6742V17.6691H72.3811V16.3942C72.0708 16.8794 71.6363 17.2438 71.0475 17.5169C70.5081 17.7794 69.9135 17.9143 69.3113 17.9108C68.5673 17.9108 67.8854 17.7899 67.2656 17.5169C66.6449 17.2742 66.1191 16.8794 65.6535 16.4246C65.2199 15.9698 64.8475 15.4236 64.6311 14.8166C64.3857 14.2084 64.2593 13.5602 64.2587 12.906C64.2587 12.2381 64.3829 11.6007 64.6311 10.9945C64.8673 10.401 65.214 9.85575 65.6535 9.38657C66.1191 8.93173 66.6449 8.53693 67.2656 8.29429C67.8863 8.02123 68.5673 7.89949 69.3113 7.89949C69.901 7.89949 70.4579 8.02123 71.0475 8.29429C71.6053 8.56736 72.0708 8.93173 72.3803 9.417ZM72.163 14.0583C72.3182 13.6948 72.3803 13.3 72.3803 12.9052C72.3862 12.5108 72.3124 12.1191 72.163 11.7529C72.0398 11.3893 71.8225 11.085 71.5742 10.7823C71.3268 10.5093 71.0165 10.2962 70.6449 10.1145C70.2632 9.95249 69.8514 9.86988 69.4354 9.87183C69.0018 9.87183 68.5992 9.96314 68.2579 10.1145C67.9146 10.2742 67.6085 10.5015 67.3587 10.7823C67.1104 11.0546 66.8932 11.3885 66.7699 11.7529C66.6458 12.1164 66.5527 12.5112 66.5837 12.906C66.5837 13.3 66.6458 13.6939 66.7699 14.0583C66.8941 14.4218 67.1104 14.7558 67.3587 15.0288C67.607 15.3019 67.9165 15.5149 68.2579 15.6967C68.5984 15.8489 69.0018 15.9393 69.4354 15.9393C69.8699 15.9393 70.2725 15.848 70.6449 15.6967C70.997 15.5371 71.3128 15.3099 71.5737 15.0285C71.8347 14.7471 72.0353 14.4172 72.1639 14.0583H72.163ZM83.9432 8.14297H86.2673L82.4863 17.6691H79.5725L75.7898 8.14212H78.1139L81.0277 15.4532L83.9415 8.14212L83.9432 8.14297ZM91.3208 7.89949C94.451 7.89949 96.6217 10.5997 96.2182 13.7244H88.5303C88.5303 14.5444 89.3984 16.1211 91.4441 16.1211C93.2113 16.1211 94.3898 14.6349 94.3898 14.6349L95.9389 15.788C94.5441 17.2134 93.3975 17.8813 91.6303 17.8813C88.438 17.8813 86.2673 15.9393 86.2673 12.8756C86.2372 10.1449 88.4691 7.89949 91.3208 7.89949ZM88.5303 12.0868H94.0484C94.0173 11.9042 93.738 9.69007 91.2587 9.69007C88.8096 9.65963 88.5613 11.8738 88.5303 12.0868ZM97.7061 17.6682V3.34949H100V17.6691H97.7061V17.6682Z" fill="white"/>
<path d="M50.0629 25.1763C49.6896 24.9607 49.3793 24.6843 49.1922 24.3148C48.9749 23.9462 48.8818 23.5159 48.8818 23.0239C48.8818 22.531 48.9749 22.1007 49.1922 21.7321C49.3987 21.3738 49.6994 21.0763 50.0629 20.8706C50.4353 20.6559 50.8706 20.5629 51.3991 20.5629C51.7094 20.5629 52.0198 20.6246 52.3301 20.7168C52.6413 20.8098 52.8586 20.9323 53.0456 21.0862L52.6413 21.9781C52.2379 21.7008 51.8336 21.547 51.3991 21.547C50.9948 21.547 50.7155 21.6704 50.4974 21.9164C50.2801 22.1624 50.187 22.531 50.187 22.9926C50.187 23.4846 50.2801 23.8541 50.4974 24.1001C50.7155 24.3453 51.0258 24.4687 51.3991 24.4687C51.8336 24.4687 52.2379 24.3148 52.6413 24.0375L53.0448 24.9303C52.8319 25.0951 52.59 25.22 52.331 25.2989C52.0206 25.3919 51.7094 25.4528 51.3991 25.4528C50.8706 25.484 50.4353 25.391 50.0629 25.1763ZM57.3948 25.4215L56.9594 24.4383H54.7853L54.3499 25.4223H53.0448L55.3439 20.6246H56.3698L58.668 25.4223H57.3948V25.4215ZM55.2198 23.4855H56.556L55.9034 21.9781L55.2198 23.4846V23.4855ZM62.8939 20.6246H63.8879V25.4223H62.7689V23.2386L61.8379 25.4223H61.0292L60.0982 23.2386V25.4223H58.9792V20.6246H60.0051L61.4646 23.915L62.8939 20.6246ZM64.8198 25.4223V20.6246H68.2991V21.6087H66.062V22.5006H68.1439V23.4846H66.062V24.4687H68.2991V25.4528H64.8198V25.4223ZM73.2077 25.4223H71.8413L71.2198 23.8228C71.1577 23.6385 70.9715 23.5464 70.6913 23.5464H70.2258V25.4223H68.9517V20.6246H71.2189C71.8094 20.6246 72.2448 20.7481 72.5551 20.9941C72.8655 21.2392 72.9905 21.6087 72.9905 22.0703C72.9905 22.4084 72.8974 22.6849 72.7111 22.9005C72.5241 23.1465 72.2758 23.3003 71.9655 23.3925C72.0896 23.4229 72.2137 23.4855 72.3379 23.5768C72.462 23.6698 72.5241 23.8228 72.5861 23.9767L73.2077 25.4223ZM71.6232 22.5006C71.7474 22.4084 71.8094 22.285 71.8094 22.1007C71.8094 21.9164 71.7474 21.7938 71.6232 21.7008C71.4991 21.6087 71.3129 21.5782 71.0336 21.5782H70.2258V22.624H71.0336C71.3129 22.624 71.4991 22.5623 71.6232 22.5006ZM74.8542 25.1763C74.4818 24.992 74.2017 24.6843 73.9844 24.3148C73.7764 23.9041 73.6701 23.4512 73.6741 22.9926C73.6741 22.5006 73.7672 22.0703 73.9844 21.7008C74.1706 21.3322 74.4818 21.0549 74.8551 20.8402C75.2275 20.6246 75.662 20.5325 76.1594 20.5325C76.656 20.5325 77.0913 20.6255 77.4637 20.8402C77.837 21.0245 78.1163 21.3322 78.3034 21.7008C78.4896 22.0703 78.6137 22.5006 78.6137 22.9926C78.6137 23.4846 78.5206 23.915 78.3034 24.3148C78.1163 24.6843 77.837 24.9607 77.4637 25.1763C77.0913 25.391 76.656 25.484 76.1594 25.484C75.662 25.484 75.2275 25.391 74.8542 25.1763ZM77.0292 24.1305C77.2465 23.8845 77.3396 23.5159 77.3396 23.023C77.3396 22.531 77.2465 22.1624 77.0292 21.9164C76.812 21.6704 76.5318 21.5478 76.1586 21.5478C75.7861 21.5478 75.5068 21.6704 75.2896 21.9164C75.0723 22.1624 74.9792 22.531 74.9792 23.0239C74.9792 23.5151 75.0723 23.8845 75.2896 24.1305C75.5068 24.3765 75.7861 24.5 76.1594 24.5C76.5318 24.5304 76.812 24.3765 77.0292 24.1305ZM80.3844 25.1763C80.012 24.992 79.7318 24.6843 79.5146 24.3148C79.3066 23.9042 79.2002 23.4512 79.2042 22.9926C79.2042 22.5006 79.2973 22.0703 79.5146 21.7008C79.7008 21.3322 80.012 21.0549 80.3844 20.8402C80.7885 20.6378 81.2358 20.5323 81.6896 20.5325C82.1861 20.5325 82.6206 20.6255 82.9939 20.8402C83.3672 21.0558 83.6465 21.3322 83.8327 21.7008C84.0375 22.1018 84.1438 22.5442 84.143 22.9926C84.143 23.4846 84.0508 23.915 83.8327 24.3148C83.6465 24.6843 83.3672 24.9607 82.9939 25.1763C82.6215 25.391 82.1861 25.484 81.6896 25.484C81.1922 25.484 80.7568 25.391 80.3844 25.1763ZM82.5594 24.1305C82.7767 23.8845 82.8698 23.5159 82.8698 23.023C82.8698 22.531 82.7767 22.1624 82.5594 21.9164C82.3413 21.6704 82.062 21.5478 81.6887 21.5478C81.3163 21.5478 81.037 21.6704 80.8198 21.9164C80.6017 22.1624 80.5094 22.531 80.5094 23.0239C80.5094 23.5151 80.6017 23.8845 80.8198 24.1305C81.037 24.3765 81.3163 24.5 81.6896 24.5C82.062 24.5304 82.3413 24.3765 82.5594 24.1305ZM88.0577 20.6246H89.2698V25.4223H88.3068L86.1008 22.6849V25.4223H84.8896V20.6246H85.8206L88.0267 23.3308V20.6255H88.0577V20.6246Z" fill="white"/>
</g>
<defs>
<clipPath id="clip0_0_531">
<rect width="100" height="30.4348" fill="white"/>
</clipPath>
</defs>
</svg>
