<svg width="24" height="24" viewBox="0 0 24 24" fill="none" xmlns="http://www.w3.org/2000/svg">
<rect width="24" height="24" rx="12" fill="#611F69"/>
<path d="M9.8706 4C8.98869 4 8.27386 4.71643 8.27386 5.59995C8.27365 5.80984 8.31479 6.01773 8.39492 6.21173C8.47504 6.40573 8.5926 6.58205 8.74087 6.73062C8.88914 6.87918 9.06522 6.99709 9.25906 7.07761C9.4529 7.15813 9.6607 7.19968 9.8706 7.19989H11.4676V5.59995C11.468 5.17601 11.2999 4.7693 11.0004 4.46926C10.7009 4.16922 10.2945 4.00043 9.8706 4ZM9.8706 8.26652H5.61236C4.73045 8.26652 4.01562 8.98296 4.01562 9.86674C4.01562 10.7502 4.73045 11.4667 5.61236 11.4667H9.87087C10.7525 11.4667 11.4676 10.7502 11.4676 9.86674C11.4676 8.98296 10.7525 8.26652 9.8706 8.26652Z" fill="white"/>
<path d="M19.984 9.86674C19.984 8.98296 19.2689 8.26652 18.387 8.26652C17.505 8.26652 16.7902 8.98296 16.7902 9.86674V11.4667H18.387C18.8109 11.4663 19.2173 11.2975 19.5168 10.9974C19.8163 10.6974 19.9843 10.2907 19.984 9.86674ZM15.7257 9.86674V5.59995C15.7261 5.17601 15.558 4.7693 15.2585 4.46926C14.9591 4.16922 14.5527 4.00043 14.1287 4C13.2468 4 12.532 4.71643 12.532 5.59995V9.86647C12.532 10.7505 13.2468 11.467 14.1287 11.467C14.5527 11.4665 14.9591 11.2977 15.2585 10.9977C15.558 10.6976 15.7261 10.2909 15.7257 9.867" fill="white"/>
<path d="M14.1287 20C14.5527 19.9996 14.9591 19.8308 15.2585 19.5307C15.558 19.2307 15.7261 18.824 15.7257 18.4001C15.7261 17.9761 15.558 17.5694 15.2585 17.2694C14.9591 16.9693 14.5527 16.8005 14.1287 16.8001H12.532V18.4001C12.532 19.2836 13.2468 20 14.1287 20ZM14.1287 15.7335H18.3872C19.2689 15.7335 19.984 15.0171 19.984 14.1333C19.9843 13.7093 19.8163 13.3026 19.5168 13.0026C19.2173 12.7025 18.8109 12.5338 18.387 12.5333H14.1287C13.2468 12.5333 12.532 13.2498 12.532 14.1333C12.5318 14.3432 12.5729 14.5511 12.653 14.7451C12.7332 14.9391 12.8507 15.1154 12.999 15.2639C13.1473 15.4125 13.3233 15.5304 13.5172 15.6109C13.711 15.6915 13.9188 15.733 14.1287 15.7332" fill="white"/>
<path d="M4.01563 14.1333C4.01542 14.3432 4.05655 14.5511 4.13668 14.7451C4.21681 14.9391 4.33436 15.1154 4.48264 15.2639C4.63091 15.4125 4.80699 15.5304 5.00083 15.6109C5.19467 15.6915 5.40247 15.733 5.61236 15.7332C6.0363 15.7328 6.4427 15.564 6.74219 15.264C7.04168 14.9639 7.20972 14.5572 7.20937 14.1333V12.5333H5.61236C4.73046 12.5333 4.01563 13.2498 4.01563 14.1333ZM8.27386 14.1333V18.3998C8.27386 19.2836 8.98869 20 9.8706 20C10.2945 19.9996 10.7009 19.8308 11.0004 19.5307C11.2999 19.2307 11.468 18.824 11.4676 18.4001V14.1333C11.4678 13.9234 11.4267 13.7154 11.3465 13.5214C11.2664 13.3274 11.1488 13.1511 11.0005 13.0025C10.8522 12.8539 10.6761 12.736 10.4822 12.6555C10.2884 12.575 10.0805 12.5335 9.8706 12.5333C8.98869 12.5333 8.27386 13.2498 8.27386 14.1333Z" fill="white"/>
</svg>
