<svg width="14" height="14" viewBox="0 0 14 14" fill="none" xmlns="http://www.w3.org/2000/svg">
<path d="M13.8364 13.0122L10.3573 9.53317C11.3054 8.37364 11.7716 6.89406 11.6593 5.40048C11.5471 3.9069 10.8651 2.51358 9.75441 1.50874C8.64371 0.503889 7.18928 -0.0356119 5.69195 0.00182585C4.19463 0.0392636 2.76897 0.650775 1.70987 1.70987C0.650775 2.76897 0.0392636 4.19463 0.00182585 5.69195C-0.0356119 7.18928 0.503889 8.64371 1.50874 9.75441C2.51358 10.8651 3.9069 11.5471 5.40048 11.6593C6.89406 11.7716 8.37364 11.3054 9.53317 10.3573L13.0122 13.8364C13.1222 13.9426 13.2694 14.0013 13.4222 14C13.575 13.9987 13.7212 13.9374 13.8293 13.8293C13.9374 13.7212 13.9987 13.575 14 13.4222C14.0013 13.2694 13.9426 13.1222 13.8364 13.0122ZM5.8472 10.51C4.92498 10.51 4.02347 10.2366 3.25667 9.72421C2.48987 9.21185 1.89222 8.48361 1.5393 7.63159C1.18638 6.77957 1.09404 5.84203 1.27396 4.93753C1.45388 4.03302 1.89797 3.20219 2.55008 2.55008C3.20219 1.89797 4.03302 1.45388 4.93753 1.27396C5.84203 1.09404 6.77957 1.18638 7.63159 1.5393C8.48361 1.89222 9.21185 2.48987 9.72421 3.25667C10.2366 4.02347 10.51 4.92498 10.51 5.8472C10.5086 7.08343 10.0169 8.26864 9.14279 9.14279C8.26864 10.0169 7.08343 10.5086 5.8472 10.51Z" fill="#007A5E"/>
</svg>
