<svg width="181" height="21" viewBox="0 0 181 21" fill="none" xmlns="http://www.w3.org/2000/svg">
<g clip-path="url(#clip0_0_518)">
<path d="M19.8766 19.2626C19.6315 19.6604 19.3086 20.0065 18.9267 20.2811C18.5385 20.5603 18.0994 20.764 17.6333 20.881C17.1634 20.9991 16.6751 21.0293 16.1938 20.9699C15.7146 20.9115 15.2511 20.7642 14.8278 20.5359L1.84781 13.5009C1.43081 13.2759 1.06261 12.9729 0.763948 12.6091C0.470137 12.251 0.253187 11.8381 0.126173 11.3953C0.000545294 10.9566 -0.0317173 10.4972 0.0313971 10.0457C0.0955309 9.59422 0.252303 9.15882 0.494586 8.76472C0.740148 8.36706 1.06348 8.02114 1.44591 7.74692C1.83417 7.46813 2.2732 7.26497 2.73927 7.14842C3.2092 7.03053 3.69752 7.00061 4.17872 7.06022C4.65773 7.11897 5.12104 7.26648 5.54406 7.49492L18.5248 14.5257C18.9452 14.7539 19.3136 15.057 19.6086 15.4175C19.9024 15.7757 20.1193 16.1886 20.2464 16.6313C20.3718 17.0709 20.4039 17.5301 20.3405 17.9809C20.2765 18.4344 20.1188 18.8704 19.8773 19.2619L19.8766 19.2626Z" fill="#2278BD"/>
<path d="M26.3826 1.73318C26.887 0.927668 27.6925 0.348232 28.6265 0.118977C29.5717 -0.119322 30.5738 0.00403411 31.4299 0.464077L44.4092 7.49418C44.8367 7.71818 45.213 8.01988 45.5151 8.38178C45.818 8.74298 46.041 9.15738 46.1707 9.60118C46.3011 10.0443 46.3368 10.507 46.274 10.9634C46.2113 11.4214 46.0531 11.8617 45.8094 12.257C45.5615 12.6583 45.2344 13.007 44.8474 13.2825C44.4543 13.5624 44.0098 13.7652 43.5384 13.8796C43.0634 13.9954 42.5703 14.0215 42.0854 13.9566C41.6025 13.8925 41.1366 13.738 40.7129 13.5016L27.7322 6.47008C26.8842 6.01018 26.265 5.25208 26.012 4.36378C25.8869 3.92377 25.8552 3.46319 25.919 3.01065C25.9827 2.55811 26.1405 2.12328 26.3826 1.73318Z" fill="#30A043"/>
<path d="M18.5248 6.47009L11.9953 10.0065L5.99802 6.75849C5.44925 6.46261 4.84659 6.27566 4.22437 6.20829L14.8278 0.463392C15.6835 0.0123915 16.681 -0.104372 17.6205 0.136492C18.5485 0.368273 19.3478 0.946348 19.8488 1.74789C20.0895 2.13607 20.2467 2.56851 20.311 3.01862C20.3752 3.46873 20.345 3.92698 20.2222 4.36519C20.0948 4.80876 19.8792 5.22314 19.5878 5.58442C19.2965 5.94569 18.9352 6.24671 18.5248 6.47009Z" fill="#E43628"/>
<path d="M27.7322 14.5271L34.2617 10.99L40.259 14.2387C40.8075 14.5345 41.4099 14.7214 42.0319 14.7889L31.4284 20.5359C30.5723 20.9966 29.57 21.1204 28.6244 20.8824C27.6773 20.6444 26.8699 20.0634 26.3797 19.2668C26.1377 18.8764 25.98 18.4413 25.9165 17.9885C25.853 17.5357 25.885 17.0749 26.0105 16.6348C26.2642 15.7472 26.8835 14.9898 27.7322 14.5299V14.5271Z" fill="#F9BD00"/>
<path d="M109.796 2.25473H114.889C116.609 2.25473 118.111 2.58933 119.395 3.25783C120.635 3.88531 121.663 4.85321 122.353 6.04383C123.041 7.23173 123.386 8.59743 123.386 10.1395C123.386 11.6816 123.042 13.0473 122.353 14.2359C121.663 15.4265 120.635 16.3943 119.395 17.0212C118.112 17.6897 116.61 18.0236 114.889 18.0229H109.796V2.25473ZM114.889 16.24C116.876 16.24 118.449 15.7038 119.606 14.6321C120.764 13.5597 121.343 12.0624 121.343 10.1395C121.343 8.21593 120.765 6.71863 119.606 5.64693C118.448 4.57593 116.875 4.03973 114.889 4.03903H111.788V16.24H114.889ZM128.196 17.6162C127.305 17.1253 126.57 16.401 126.073 15.5239C125.559 14.6189 125.296 13.5975 125.31 12.5615C125.297 11.5258 125.56 10.5048 126.073 9.59983C126.57 8.72287 127.305 7.99841 128.196 7.50683C129.136 6.9929 130.197 6.73119 131.272 6.74803C132.351 6.73208 133.416 6.99392 134.36 7.50753C135.257 7.99606 135.997 8.72067 136.497 9.59983C137.009 10.5049 137.272 11.5259 137.259 12.5615C137.272 13.5974 137.01 14.6187 136.497 15.5239C135.997 16.4035 135.257 17.1283 134.36 17.6162C133.417 18.1298 132.352 18.3919 131.273 18.3764C130.198 18.3931 129.136 18.1309 128.196 17.6162ZM133.244 16.1728C133.857 15.8323 134.364 15.3337 134.71 14.7308C135.077 14.1078 135.261 13.3847 135.262 12.5615C135.277 11.8033 135.087 11.0547 134.71 10.3929C134.364 9.79016 133.857 9.29158 133.244 8.95093C132.643 8.61559 131.963 8.44062 131.272 8.44343C130.585 8.44343 129.912 8.61843 129.323 8.95023C128.71 9.29122 128.203 9.78972 127.857 10.3922C127.49 11.0173 127.306 11.7404 127.306 12.5622C127.306 13.3833 127.49 14.1064 127.857 14.7308C128.203 15.3336 128.71 15.8322 129.323 16.1728C129.916 16.5067 130.588 16.6817 131.272 16.6803C131.963 16.6837 132.643 16.5087 133.244 16.1728ZM140.884 17.2088C140.141 16.4297 139.769 15.351 139.769 13.9706V7.10013H141.764V13.6591C141.764 15.6702 142.726 16.6761 144.651 16.6761C145.265 16.6843 145.867 16.5074 146.376 16.1693C146.88 15.839 147.285 15.3841 147.553 14.8505C147.824 14.3173 147.964 13.7293 147.963 13.1334V7.09943H149.934V18.0229H148.057V16.394H147.959C147.614 16.9512 147.093 17.4209 146.395 17.8031C145.711 18.1817 144.939 18.379 144.154 18.3757C142.718 18.3757 141.627 17.9865 140.884 17.2088ZM154.709 17.9025C154.063 17.6156 153.51 17.1581 153.112 16.5809C152.73 16.0173 152.53 15.3535 152.538 14.6762C152.538 13.5142 153.003 12.6119 153.935 11.9672C154.865 11.3232 156.058 11.0012 157.514 11.0012C158.17 10.9935 158.826 11.067 159.462 11.2203C159.94 11.3317 160.405 11.4942 160.847 11.7047V11.1328C160.854 10.6267 160.702 10.1306 160.413 9.71183C160.121 9.29244 159.72 8.95801 159.251 8.74373C158.76 8.51462 158.222 8.39761 157.678 8.40143C156.348 8.40143 155.331 8.90823 154.627 9.92113L152.96 8.88653C153.45 8.20594 154.112 7.66242 154.881 7.30943C155.726 6.92536 156.649 6.7337 157.58 6.74873C159.177 6.74873 160.437 7.15193 161.359 7.95973C162.281 8.76683 162.743 9.85323 162.745 11.2189V18.0229H160.843V16.4164H160.745C160.352 16.9905 159.83 17.4687 159.22 17.8143C158.543 18.1979 157.771 18.3923 156.99 18.3764C156.203 18.3868 155.424 18.2249 154.709 17.9025ZM158.945 16.2624C159.501 15.9613 159.973 15.5303 160.319 15.0073C160.664 14.4986 160.848 13.9004 160.847 13.2888C159.97 12.7596 158.96 12.495 157.818 12.4957C156.832 12.4957 156.045 12.7057 155.458 13.1236C154.87 13.5422 154.577 14.0749 154.578 14.7196C154.573 15.001 154.642 15.2796 154.776 15.5309C154.911 15.7822 155.108 15.9992 155.352 16.163C155.876 16.5394 156.511 16.7367 157.16 16.7244C157.786 16.7249 158.401 16.5657 158.945 16.2624ZM165.94 2.25473H167.935V18.025H165.94V2.25403V2.25473ZM172.688 17.9025C172.042 17.6155 171.49 17.158 171.093 16.5809C170.709 16.0178 170.509 15.3537 170.517 14.6762C170.517 13.5142 170.983 12.6119 171.914 11.9672C172.846 11.3232 174.039 11.0012 175.494 11.0005C176.15 10.9932 176.804 11.0671 177.442 11.2203C177.92 11.3317 178.385 11.4942 178.827 11.7047V11.1328C178.834 10.6265 178.682 10.1303 178.392 9.71183C178.101 9.29216 177.699 8.95766 177.23 8.74373C176.739 8.51436 176.202 8.39709 175.658 8.40073C174.329 8.40073 173.311 8.90823 172.606 9.92183L170.94 8.88583C171.431 8.20558 172.093 7.66233 172.861 7.30943C173.707 6.92523 174.63 6.73333 175.561 6.74803C177.157 6.74803 178.416 7.15193 179.34 7.95903C180.264 8.76683 180.726 9.85323 180.726 11.2189V18.0229H178.824V16.4164H178.726C178.332 16.9906 177.81 17.4688 177.2 17.8143C176.523 18.198 175.751 18.3924 174.97 18.3764C174.183 18.3868 173.404 18.2249 172.688 17.9025ZM176.925 16.2624C177.481 15.9613 177.953 15.5302 178.298 15.0073C178.645 14.4988 178.829 13.9005 178.827 13.2888C177.95 12.7596 176.94 12.495 175.798 12.4957C174.812 12.4957 174.026 12.7057 173.439 13.1236C172.852 13.5422 172.559 14.0749 172.559 14.7196C172.555 15.0017 172.623 15.2796 172.757 15.5316C172.893 15.7822 173.09 15.9992 173.335 16.163C173.858 16.5395 174.492 16.7368 175.141 16.7244C175.769 16.7244 176.386 16.5641 176.925 16.2624ZM60.682 17.4517C59.4193 16.7773 58.3623 15.7844 57.62 14.5754C56.8655 13.3582 56.473 11.9579 56.4869 10.5329C56.4729 9.10771 56.8654 7.70711 57.62 6.48973C58.3684 5.2793 59.4302 4.28538 60.697 3.60923C61.9857 2.91921 63.4322 2.56314 64.8999 2.57463C66.0505 2.56709 67.1926 2.76907 68.2683 3.17033C69.2554 3.52725 70.1443 4.1048 70.865 4.85733L69.4826 6.15233C68.9491 5.54227 68.2713 5.07019 67.5087 4.77753C66.6867 4.45474 65.8086 4.29235 64.9234 4.29943C63.8047 4.29186 62.7017 4.55869 61.7146 5.07573C60.7353 5.58331 59.9128 6.34002 59.3331 7.26673C58.7345 8.21313 58.4338 9.30303 58.4338 10.5357C58.4338 11.7698 58.733 12.8583 59.3302 13.8026C59.9119 14.7315 60.7385 15.4886 61.7224 15.9936C62.7067 16.5084 63.8055 16.7753 64.9205 16.7706C66.0094 16.7706 66.9215 16.611 67.6569 16.2918C68.3636 15.9906 69.006 15.561 69.5503 15.0255C69.9562 14.6092 70.2793 14.122 70.503 13.5891C70.7532 12.9941 70.9064 12.3662 70.957 11.7278H64.9462V10.0464H72.7477C72.8204 10.4118 72.8582 10.7814 72.8617 11.1531C72.8623 12.0846 72.7008 13.0093 72.3843 13.8873C72.0703 14.7703 71.5499 15.5686 70.865 16.2183C69.3664 17.7359 67.3804 18.4947 64.9041 18.494C63.4288 18.5082 61.9746 18.1493 60.6813 17.4517H60.682ZM75.2418 2.91903H80.1374C81.8006 2.91903 83.2514 3.24103 84.4913 3.88643C85.6893 4.49292 86.682 5.42822 87.3489 6.57863C88.0144 7.72733 88.3472 9.04683 88.3472 10.5364C88.3472 12.026 88.0144 13.3448 87.3489 14.4942C86.682 15.6445 85.6893 16.5796 84.4913 17.1857C83.2514 17.8297 81.8006 18.1517 80.1374 18.1517H75.2418V2.91763V2.91903ZM80.1374 16.4304C82.0578 16.4304 83.5814 15.9124 84.7073 14.8771C85.8339 13.8418 86.3968 12.3949 86.3968 10.5364C86.3968 8.67793 85.8339 7.23103 84.7073 6.19503C83.5814 5.15903 82.0578 4.64103 80.1374 4.64243H77.1437V16.4304H80.1374ZM94.1307 17.4517C92.8691 16.7771 91.8132 15.7845 91.0715 14.5761C90.3166 13.3589 89.9241 11.9582 89.9384 10.5329C89.9244 9.10882 90.317 7.70934 91.0715 6.49323C91.8202 5.28314 92.8818 4.2895 94.1485 3.61343C95.4371 2.92308 96.8836 2.56676 98.3514 2.57813C99.5051 2.57113 100.649 2.77413 101.72 3.17453C102.705 3.53072 103.592 4.10679 104.312 4.85733L102.93 6.15583C102.396 5.54545 101.719 5.07312 100.956 4.78033C100.134 4.45763 99.2563 4.29524 98.3713 4.30223C97.2526 4.29488 96.1496 4.56195 95.1625 5.07923C94.1831 5.58667 93.3606 6.34341 92.781 7.27023C92.1831 8.21383 91.8838 9.30303 91.8845 10.5364C91.8853 11.7698 92.1838 12.8583 92.781 13.8026C93.3634 14.7319 94.191 15.489 95.176 15.9936C96.1603 16.5084 97.2591 16.7754 98.3742 16.7706C99.463 16.7706 100.374 16.611 101.111 16.2918C101.813 15.9897 102.452 15.5604 102.993 15.0262C103.399 14.6096 103.722 14.1222 103.946 13.5891C104.196 12.9941 104.349 12.3662 104.399 11.7285H98.3899V10.0471H106.191C106.263 10.4118 106.302 10.7821 106.305 11.1531C106.306 12.0846 106.145 13.0093 105.828 13.8873C105.514 14.7701 104.993 15.5684 104.309 16.2183C102.81 17.7359 100.823 18.4947 98.3478 18.494C96.8744 18.5074 95.4222 18.1484 94.1307 17.4517Z" fill="white"/>
</g>
<defs>
<clipPath id="clip0_0_518">
<rect width="181" height="21" fill="white"/>
</clipPath>
</defs>
</svg>
