<svg width="773" height="944" viewBox="0 0 773 944" fill="none" xmlns="http://www.w3.org/2000/svg">
<path d="M462.379 416.223L462.367 416.205L462.354 416.188C461.234 414.675 459.154 413.391 456.848 412.752C454.531 412.11 451.857 412.084 449.54 413.251L449.532 413.255L449.524 413.259C447.926 414.113 446.852 415.391 446.064 416.328L446.04 416.356L446.008 416.395L445.981 416.437C442.777 421.491 442.086 427.32 444.603 432.234C447.021 437.174 446.536 442.332 445.906 447.818C445.884 448.006 445.862 448.194 445.841 448.383C445.233 453.641 444.592 459.188 446.714 464.721C447.222 466.107 447.57 468.113 447.981 470.478C448.067 470.972 448.156 471.482 448.249 472.004C448.78 474.98 449.455 478.308 450.671 481.294C451.887 484.281 453.674 486.998 456.471 488.671C459.282 490.352 462.997 490.91 467.925 489.808C474.941 488.28 478.276 482.882 478.115 478.132C478.137 476.413 477.869 474.699 477.615 473.071C477.533 472.549 477.453 472.037 477.384 471.535C477.093 469.418 476.985 467.426 477.625 465.445C478.067 464.084 478.88 462.724 479.89 461.328C480.611 460.331 481.408 459.348 482.22 458.345C482.55 457.938 482.882 457.528 483.213 457.112C485.444 454.312 487.637 451.249 487.592 447.874C487.612 445.299 486.356 443.118 484.532 441.201C482.713 439.289 480.258 437.565 477.741 435.901C477.188 435.536 476.633 435.174 476.079 434.812C474.083 433.51 472.107 432.22 470.354 430.852C468.115 429.104 466.335 427.296 465.401 425.294C464.848 424.084 464.563 422.814 464.261 421.469C464.216 421.267 464.17 421.063 464.123 420.858C463.77 419.316 463.343 417.697 462.379 416.223Z" stroke="#F4F4F5" stroke-width="1.5" stroke-miterlimit="10"/>
<path d="M504.943 451.258L504.946 451.251C506.229 447.741 506.654 444.187 504.928 440.561L504.926 440.557C503.092 436.769 499.273 433.693 495.102 431.072C492.453 429.406 489.57 427.871 486.889 426.445C485.364 425.633 483.905 424.856 482.592 424.11C481.917 423.717 481.238 423.327 480.558 422.936C478.07 421.504 475.572 420.067 473.259 418.493C470.318 416.492 467.739 414.31 465.935 411.722L465.935 411.722L465.927 411.712C465.225 410.741 464.72 409.744 464.182 408.495L464.182 408.495L464.177 408.485C463.501 406.981 463.114 405.419 462.707 403.778C462.561 403.189 462.413 402.591 462.248 401.981C461.635 399.719 460.808 397.407 458.997 395.339C457.005 392.905 453.146 390.916 448.839 389.944C444.543 388.974 439.65 388.979 435.462 390.676C435.354 390.69 435.189 390.724 435.035 390.819C434.924 390.887 434.845 390.966 434.795 391.019C434.782 391.033 434.768 391.048 434.755 391.064C431.979 392.443 430.097 394.192 428.679 396.123C423.424 402.867 421.362 410.991 424.306 418.734C424.556 419.466 424.6 419.994 424.477 420.76L424.47 420.805L424.469 420.85C424.377 423.231 423.34 425.72 422.235 428.374C422.188 428.486 422.141 428.599 422.094 428.711C420.969 431.417 419.808 434.303 419.933 437.125L419.933 437.126C420.189 442.709 421.769 448.044 423.46 453.336C423.633 453.879 423.807 454.42 423.981 454.962C425.516 459.73 427.046 464.484 427.768 469.481C428.245 473.34 429.219 477.47 430.248 481.833C430.793 484.144 431.353 486.52 431.863 488.955C432.03 489.829 431.926 490.899 431.652 492.139C431.426 493.161 431.101 494.235 430.763 495.352C430.691 495.589 430.618 495.828 430.546 496.069C430.141 497.422 429.747 498.823 429.566 500.152C429.385 501.478 429.404 502.808 429.892 503.991L429.892 503.992C431.801 508.6 436.001 511.717 440.932 513.756C445.872 515.798 451.646 516.802 456.887 517.128L456.896 517.128L456.905 517.128C460.496 517.267 464.262 516.941 468.199 516.157C480.096 513.787 488.357 505.398 487.682 494.852C487.585 493.079 487.395 491.359 487.204 489.698C487.187 489.55 487.17 489.403 487.153 489.256C486.979 487.745 486.81 486.284 486.711 484.847C486.495 481.7 486.619 478.738 487.727 475.816L487.734 475.797L487.741 475.778C488.561 473.207 490.241 470.728 492.413 468.147L492.417 468.141L492.422 468.135C493.603 466.671 494.831 465.256 496.049 463.86C496.156 463.738 496.263 463.615 496.369 463.493C497.476 462.226 498.572 460.97 499.6 459.72C501.85 456.985 503.825 454.216 504.943 451.258Z" stroke="#F4F4F5" stroke-width="1.5" stroke-miterlimit="10"/>
<path d="M522.283 454.248L522.284 454.245C524.779 449.571 526.445 444.359 524.34 438.737C522.222 432.828 516.582 428.238 510.309 424.479C506.136 421.978 501.567 419.783 497.441 417.801C495.367 416.804 493.405 415.862 491.663 414.962C490.792 414.503 489.908 414.043 489.017 413.579C480.666 409.228 471.662 404.537 466.02 397.814L466.016 397.809C464.845 396.435 463.854 394.82 463.082 393.377C461.874 390.973 461.22 388.506 460.549 385.973C460.362 385.269 460.174 384.561 459.973 383.847C459.055 380.596 457.87 377.324 455.207 374.341C452.361 370.987 446.729 368.276 440.426 366.985C434.131 365.696 427 365.786 421.01 368.187C420.901 368.199 420.74 368.225 420.593 368.288C420.469 368.342 420.304 368.442 420.18 368.625C415.988 370.565 413.326 373.019 411.129 375.631L411.123 375.639C403.865 384.512 400.27 395.623 404.367 406.587C404.614 407.46 404.523 408.402 404.207 409.443L404.207 409.443L404.203 409.456C403.772 410.977 402.872 412.616 401.731 414.353C400.939 415.558 400.056 416.772 399.159 418.007C398.761 418.554 398.361 419.105 397.964 419.661C396.687 421.451 395.462 423.274 394.606 425.063C393.752 426.847 393.227 428.673 393.442 430.452C394.289 437.794 397.715 444.638 401.076 451.351C401.224 451.645 401.371 451.939 401.518 452.233C405.042 459.283 408.373 466.218 408.802 473.694L408.802 473.699C409.11 478.572 410.08 483.373 411.243 488.258C411.651 489.97 412.081 491.688 412.516 493.423C413.326 496.657 414.152 499.952 414.875 503.387C415.122 504.633 414.804 506.258 414.113 508.185C413.499 509.893 412.635 511.733 411.748 513.62C411.644 513.842 411.539 514.066 411.434 514.289C410.451 516.387 409.474 518.531 408.889 520.506C408.31 522.462 408.068 524.403 408.724 526.026L408.724 526.026L408.729 526.039C411.613 532.812 418.598 536.941 426.565 539.494C434.558 542.056 443.723 543.09 451.249 543.544C456.866 543.953 462.806 543.215 468.661 542.271L468.672 542.269L468.683 542.267C485.529 539.036 498.413 527.853 497.43 511.154L497.43 511.151C497.285 508.831 497.039 506.574 496.8 504.386L496.785 504.246C496.541 502.008 496.307 499.844 496.192 497.722C495.963 493.485 496.212 489.468 497.777 485.518C499.209 482.171 501.28 478.767 504.228 475.498L504.228 475.498L504.237 475.488C506.268 473.149 508.403 470.929 510.519 468.728C511.727 467.471 512.929 466.221 514.102 464.959C517.303 461.515 520.246 458.023 522.283 454.248Z" stroke="#F4F4F5" stroke-width="1.5" stroke-miterlimit="10"/>
<path d="M539.638 457.191L539.635 457.194C536.685 461.8 532.769 466.026 528.673 470.174C527.669 471.191 526.654 472.203 525.64 473.215C522.5 476.347 519.359 479.479 516.506 482.78L516.497 482.791L516.487 482.802C512.517 487.047 509.855 491.163 508.069 495.405C504.51 503.929 505.51 512.694 506.661 522.777C506.834 524.294 507.011 525.841 507.176 527.422M539.638 457.191L506.43 527.5M539.638 457.191C543.343 451.329 546.201 444.256 543.974 437.082L543.972 437.078C541.472 429.201 534.039 423.107 525.714 418.151C520.227 414.885 514.224 412.045 508.852 409.504C506.078 408.191 503.472 406.958 501.193 405.788C499.297 404.813 497.342 403.844 495.36 402.861C491.174 400.785 486.865 398.648 482.722 396.272C476.631 392.779 470.99 388.818 466.796 383.897L466.786 383.886L466.776 383.875C465.144 382.111 463.905 380.094 462.625 378.002C460.894 374.802 460.014 371.477 459.111 368.067C458.888 367.224 458.663 366.375 458.424 365.522C457.226 361.249 455.676 356.954 452.045 353.059C448.253 348.918 440.867 345.538 432.56 343.899C424.251 342.26 414.862 342.329 406.942 345.232C406.822 345.257 406.723 345.297 406.65 345.332C406.555 345.377 406.469 345.431 406.423 345.459C406.396 345.475 406.378 345.486 406.365 345.494L406.325 345.497L406.224 345.537C400.336 347.848 396.578 351.334 393.736 354.713C384.268 365.971 379.353 379.848 384.608 393.814L384.614 393.83L384.621 393.847C384.815 394.296 384.839 394.845 384.723 395.526C384.609 396.203 384.373 396.928 384.112 397.719C383.284 399.601 381.789 401.619 379.972 403.739C378.806 405.099 377.539 406.466 376.258 407.848C375.527 408.636 374.793 409.429 374.069 410.228C372.097 412.407 370.23 414.615 368.925 416.775C367.626 418.925 366.819 421.134 367.129 423.287L367.13 423.296C368.521 432.216 373.518 440.516 378.434 448.682C378.814 449.314 379.194 449.946 379.572 450.577C384.874 459.426 389.756 468.175 390.04 477.706L390.04 477.712C390.288 484.472 391.624 490.956 393.261 497.506C393.801 499.667 394.372 501.83 394.949 504.012C396.125 508.469 397.324 513.008 398.323 517.778M539.638 457.191L390.789 477.684C391.115 486.555 393.337 494.972 395.667 503.796C396.847 508.264 398.055 512.838 399.057 517.627M507.176 527.422L506.43 527.5M507.176 527.422C507.176 527.421 507.176 527.421 507.176 527.421L506.43 527.5M507.176 527.422C508.367 538.665 504.374 547.848 497.333 554.714C490.312 561.561 480.282 566.09 469.372 568.139M506.43 527.5C508.761 549.494 490.844 563.344 469.23 567.403M469.372 568.139C469.373 568.139 469.375 568.138 469.376 568.138L469.23 567.403M469.372 568.139C461.548 569.697 453.635 570.38 446.055 569.923L446.055 569.923C436.336 569.331 423.766 568.262 412.712 565.173C401.699 562.096 391.952 556.947 388.216 548.018M469.372 568.139C469.371 568.139 469.369 568.139 469.368 568.14L469.23 567.403M469.23 567.403L388.216 548.018M388.216 548.018C388.216 548.019 388.216 548.019 388.217 548.02L388.908 547.729M388.216 548.018L446.101 569.175C426.671 567.991 396.096 564.91 388.908 547.729M388.216 548.018L388.908 547.729M388.216 548.018C387.342 545.94 387.781 543.395 388.722 540.792C389.674 538.16 391.209 535.282 392.759 532.449C392.921 532.153 393.083 531.858 393.245 531.564C394.644 529.013 396.014 526.516 397 524.211C398.11 521.614 398.655 519.426 398.323 517.778M388.908 547.729C387.311 543.936 390.625 537.896 393.904 531.922C396.857 526.539 399.782 521.21 399.057 517.627M399.057 517.627L398.323 517.781C398.323 517.78 398.323 517.779 398.323 517.778M399.057 517.627L398.322 517.776C398.322 517.777 398.322 517.777 398.323 517.778" stroke="#F4F4F5" stroke-width="1.5" stroke-miterlimit="10"/>
<path d="M556.996 460.122L557 460.117C561.918 453.059 565.974 444.344 563.364 435.211C560.59 425.359 551.308 417.769 540.854 411.652C533.892 407.579 526.272 404.087 519.543 401.004C516.166 399.457 513.014 398.013 510.283 396.649L510.279 396.647C508.177 395.614 506.007 394.576 503.8 393.519C498.385 390.929 492.741 388.228 487.308 385.213C479.668 380.972 472.522 376.148 467.144 370.224L467.135 370.214L467.126 370.205C465.012 368.03 463.297 365.599 461.768 362.916L461.763 362.907C459.341 358.797 458.183 354.477 456.999 350.059C456.768 349.198 456.537 348.334 456.295 347.466C454.818 342.179 452.962 336.864 448.482 332.05C443.84 326.991 434.74 322.88 424.428 320.919C414.114 318.959 402.428 319.118 392.489 322.743C392.37 322.767 392.273 322.807 392.206 322.837C392.133 322.87 392.026 322.927 391.997 322.941C391.905 322.988 391.844 323.011 391.762 323.018L391.654 323.027L391.553 323.066C384.183 325.943 379.609 330.154 376.166 334.246C364.469 347.672 358.269 364.512 364.671 381.674C365.147 383.07 364.758 384.399 363.844 386.443C362.673 388.688 360.587 391.108 358.075 393.646C356.516 395.221 354.83 396.807 353.128 398.407C352.077 399.396 351.02 400.39 349.983 401.391C347.293 403.988 344.763 406.609 343.008 409.158C341.266 411.689 340.191 414.289 340.657 416.805C342.592 427.451 349.199 437.256 355.7 446.903C356.317 447.82 356.934 448.735 357.546 449.65C364.65 460.269 371.085 470.786 371.116 482.392L371.116 482.398C371.204 491.162 372.912 499.381 375.019 507.57C375.667 510.087 376.351 512.595 377.038 515.116C378.594 520.822 380.166 526.587 381.371 532.638L381.371 532.642C381.792 534.703 381.013 537.463 379.48 540.729C378.101 543.667 376.187 546.865 374.239 550.12C374.043 550.447 373.847 550.775 373.652 551.102C371.521 554.671 369.409 558.283 368.062 561.572C366.731 564.825 366.06 567.964 367.084 570.488L367.086 570.492C371.67 581.566 384.164 587.681 398.253 591.257C412.358 594.837 428.349 595.94 440.369 596.77L440.447 596.775C440.448 596.775 440.449 596.775 440.45 596.775C450.045 597.501 459.906 596.427 469.668 594.705L469.668 594.705L469.674 594.704C483.179 592.213 495.762 586.698 504.569 578.24C513.397 569.762 518.409 558.344 516.743 544.169C516.626 543.163 516.508 542.169 516.392 541.186C514.813 527.854 513.478 516.588 517.967 505.756C520.11 500.615 523.366 495.787 528.143 490.584L528.149 490.578L528.154 490.572C531.989 486.208 536.215 482.143 540.417 478.102C541.337 477.217 542.257 476.332 543.171 475.446C548.241 470.531 553.133 465.567 556.996 460.122Z" stroke="#F4F4F5" stroke-width="1.5" stroke-miterlimit="10"/>
<path d="M574.367 463.035L574.362 463.04C569.586 469.326 563.773 475.024 557.775 480.652C556.643 481.715 555.504 482.774 554.364 483.835C549.453 488.406 544.52 492.997 539.973 497.918L539.968 497.923C534.384 503.848 530.546 509.604 528.022 515.444C522.351 528.97 524.087 542.924 526.196 559.871L526.272 560.484L526.272 560.484M574.367 463.035L470.008 619.857C501.794 614.044 529.745 594.276 525.528 560.577L526.272 560.484M574.367 463.035C580.701 454.536 585.724 444.204 582.991 433.54L582.989 433.533C579.822 421.619 568.758 412.53 556.226 405.272C547.678 400.322 538.307 396.15 530.112 392.502C526.288 390.8 522.719 389.212 519.61 387.711C516.577 386.228 513.415 384.75 510.188 383.242C504.218 380.451 498.027 377.558 492.019 374.335C482.781 369.381 474.082 363.702 467.504 356.565C465.108 353.948 462.919 351.106 461.144 348.024L461.141 348.017L461.137 348.011C458.181 343.104 456.8 337.922 455.386 332.615C455.117 331.604 454.846 330.588 454.563 329.569C452.804 323.232 450.581 316.849 445.132 311.018C439.652 305.154 428.787 300.317 416.443 298.01C404.097 295.703 390.109 295.896 378.254 300.235C378.147 300.256 378.053 300.288 377.99 300.311C377.897 300.345 377.801 300.387 377.727 300.419L377.719 300.422C377.672 300.442 377.633 300.459 377.598 300.474C377.572 300.485 377.548 300.494 377.526 300.502C377.513 300.507 377.503 300.51 377.496 300.512L377.419 300.519L377.318 300.558C368.458 304.003 363.07 308.943 358.818 313.756L358.817 313.757C345.112 329.326 337.42 349.371 344.954 369.518C345.456 371.139 345.085 372.915 343.603 375.135L343.595 375.147L343.587 375.159C342.01 377.729 339.292 380.518 336.069 383.446C334.215 385.131 332.236 386.824 330.239 388.534C328.752 389.807 327.254 391.09 325.789 392.384C322.391 395.385 319.22 398.41 317.034 401.343C314.867 404.252 313.547 407.233 314.165 410.097C316.751 422.523 324.98 433.891 333.069 445.068C333.889 446.201 334.709 447.333 335.52 448.464C344.397 460.829 352.389 473.069 352.374 486.638M574.367 463.035L353.124 486.641M526.272 560.484C528.412 577.589 522.378 591.187 511.785 601.219C501.216 611.228 486.132 617.671 470.143 620.595L470.141 620.596C458.43 622.706 446.61 623.948 435.039 623.174M526.272 560.484L435.039 623.174M435.039 623.174C435.04 623.174 435.041 623.174 435.042 623.174L435.087 622.425L435.037 623.173C435.038 623.173 435.038 623.174 435.039 623.174ZM435.039 623.174C434.664 623.151 434.284 623.128 433.902 623.105C419.792 622.254 400.982 621.119 384.263 617.133C367.144 613.051 351.916 605.913 346.377 592.717L346.374 592.71L346.371 592.702C345.198 589.74 346.094 586.013 347.816 582.108C349.557 578.162 352.244 573.814 354.957 569.509C355.186 569.146 355.415 568.783 355.643 568.421C358.14 564.464 360.599 560.567 362.373 557.001C364.329 553.07 365.347 549.733 364.838 547.254M435.039 623.174L365.572 547.101M364.838 547.254C364.838 547.255 364.838 547.255 364.838 547.256L365.572 547.101M364.838 547.254C364.838 547.253 364.838 547.253 364.838 547.252L365.572 547.101M364.838 547.254C363.366 540.264 361.494 533.621 359.646 527.059C358.703 523.712 357.766 520.385 356.891 517.046C354.31 507.191 352.293 497.29 352.374 486.638M365.572 547.101C364.095 540.088 362.211 533.399 360.359 526.821C356.624 513.561 353.016 500.752 353.124 486.641M352.374 486.638C352.374 486.639 352.374 486.64 352.374 486.64L353.124 486.641M352.374 486.638C352.374 486.637 352.374 486.636 352.374 486.636L353.124 486.641" stroke="#F4F4F5" stroke-width="1.5" stroke-miterlimit="10"/>
<path d="M591.736 465.948L591.738 465.946C599.279 456.256 605.716 444.261 602.596 431.638L602.596 431.637C599.153 417.759 586.305 407.172 571.697 398.747C561.639 392.947 550.602 388.097 541.028 383.89C536.688 381.983 532.649 380.208 529.139 378.537L529.135 378.535C526.198 377.154 523.16 375.766 520.064 374.352C512.507 370.901 504.602 367.29 496.964 363.223C486.204 357.493 476.051 350.893 468.277 342.645L468.275 342.643C465.411 339.632 462.731 336.176 460.702 332.677L460.695 332.665C457.192 326.865 455.545 320.764 453.872 314.572C453.559 313.412 453.245 312.249 452.918 311.084C450.852 303.732 448.271 296.388 441.983 289.75C435.652 282.969 423.021 277.407 408.648 274.755C394.273 272.102 377.991 272.328 364.216 277.266C363.93 277.306 363.713 277.4 363.57 277.462L363.555 277.468C363.397 277.537 363.337 277.558 363.253 277.566L363.146 277.575L363.046 277.614C352.698 281.625 346.497 287.294 341.433 292.829L341.425 292.838C325.508 310.795 316.507 333.598 325.191 356.736L325.196 356.749C325.89 358.501 325.208 360.704 323.476 363.237L323.474 363.24C321.49 366.182 318.16 369.371 314.25 372.706C311.992 374.632 309.582 376.574 307.153 378.53C305.367 379.968 303.571 381.415 301.818 382.87C297.715 386.275 293.891 389.689 291.235 392.977C288.603 396.235 286.969 399.55 287.611 402.708L287.611 402.708L287.614 402.721C289.348 410.554 293.149 417.995 297.826 425.225C301.57 431.011 305.9 436.698 310.206 442.354C311.276 443.759 312.345 445.163 313.403 446.565C324.084 460.728 333.644 474.799 333.375 490.46C333.125 503.001 335.512 514.634 338.567 526.152C339.555 529.88 340.611 533.589 341.671 537.312C343.895 545.123 346.137 552.996 347.811 561.243L347.812 561.245C348.107 562.676 347.95 564.375 347.401 566.316C346.853 568.254 345.929 570.386 344.746 572.661C342.601 576.785 339.65 581.293 336.655 585.868C336.341 586.347 336.027 586.828 335.712 587.309C332.418 592.351 329.167 597.434 327.073 602.037C325 606.594 323.95 610.91 325.391 614.302C328.588 621.976 334.702 627.848 342.516 632.37C350.327 636.89 359.877 640.086 370.026 642.397C388.944 646.705 410.079 647.968 426.167 648.93C427.335 648.999 428.476 649.067 429.587 649.135L429.587 649.135C443.135 649.958 457.131 648.529 470.583 646.27L470.583 646.27L470.593 646.268C489.068 642.91 506.652 635.539 519.01 623.976C531.393 612.389 538.505 596.609 536.002 576.567L536.002 576.563C533.416 556.745 531.401 540.655 538.078 525.13L538.079 525.128C540.964 518.376 545.381 511.693 551.776 505.042L551.781 505.038C557.095 499.414 562.929 494.197 568.753 488.99C569.96 487.911 571.167 486.832 572.368 485.75C579.352 479.461 586.151 473.073 591.736 465.948Z" stroke="#F4F4F5" stroke-width="1.5" stroke-miterlimit="10"/>
<path d="M609.108 468.857L609.112 468.853C617.864 457.964 625.469 444.11 622.001 429.973C618.272 414.025 603.647 401.995 586.94 392.461C575.626 386.005 563.207 380.616 552.379 375.917C547.211 373.675 542.405 371.589 538.254 369.62L538.252 369.619C534.649 367.923 530.908 366.222 527.09 364.486C518.739 360.689 510.018 356.725 501.565 352.276C489.258 345.8 477.602 338.339 468.635 328.985L468.63 328.979C465.303 325.579 462.364 321.705 459.834 317.572C455.801 310.984 453.93 304.03 452.032 296.976C451.678 295.658 451.322 294.337 450.951 293.014C448.605 284.642 445.663 276.284 438.417 268.739C431.237 261.041 416.84 254.754 400.437 251.783C384.002 248.806 365.386 249.126 349.679 254.807L349.608 254.833L349.542 254.872C349.414 254.951 349.277 255.001 349.055 255.077L349.035 255.084C348.848 255.148 348.596 255.235 348.34 255.381C336.729 259.726 329.526 266.353 323.876 272.587L323.872 272.592C305.948 292.694 295.442 318.48 305.274 344.815C306.03 347.03 305.328 349.472 303.227 352.202L303.216 352.217L303.205 352.232C300.877 355.585 296.954 359.183 292.355 362.92C289.648 365.121 286.749 367.337 283.832 369.566C281.786 371.13 279.733 372.7 277.731 374.275C272.907 378.071 268.421 381.872 265.318 385.542C262.242 389.179 260.361 392.882 261.156 396.431L261.157 396.435C263.2 405.289 267.648 413.678 273.115 421.822C277.468 428.305 282.492 434.668 287.49 440.999C288.766 442.615 290.04 444.229 291.301 445.842C303.757 461.778 314.887 477.63 314.471 495.38C314.053 509.807 316.805 523.115 320.359 536.294C321.499 540.522 322.719 544.729 323.945 548.955C326.549 557.935 329.178 566.998 331.116 576.525L331.116 576.528C331.457 578.171 331.262 580.124 330.61 582.354C329.959 584.579 328.869 587.029 327.477 589.642C324.907 594.462 321.358 599.747 317.771 605.088C317.466 605.542 317.161 605.996 316.856 606.451C312.981 612.229 309.154 618.034 306.664 623.251C305.417 625.863 304.49 628.359 304.063 630.657C303.636 632.955 303.702 635.105 304.501 636.98C308.174 645.715 315.209 652.359 324.201 657.451C333.191 662.542 344.181 666.108 355.846 668.672C376.367 673.183 399.112 674.622 416.976 675.753C419.416 675.907 421.764 676.056 424.004 676.206C439.554 677.297 455.517 675.699 471.12 672.813C492.083 669.021 512.216 660.662 526.357 647.49C540.524 634.294 548.654 616.282 545.57 593.322C542.759 570.885 540.575 552.834 548.189 535.472L548.193 535.463C551.438 527.807 556.45 520.412 563.65 512.806L563.654 512.802C569.99 506.005 577.01 499.782 584.012 493.576C584.976 492.721 585.94 491.867 586.901 491.012C594.832 483.956 602.609 476.827 609.108 468.857Z" stroke="#F4F4F5" stroke-width="1.5" stroke-miterlimit="10"/>
<path d="M284.025 658.728C280.722 650.801 290.059 637.17 299.336 623.627C307.935 611.072 316.483 598.594 314.862 590.805C312.707 580.308 309.776 570.25 306.875 560.294C301.121 540.55 295.485 521.211 296.26 499.669L295.511 499.642C295.511 499.642 295.511 499.642 295.511 499.643C296.19 479.904 283.545 462.265 269.315 444.558C267.784 442.652 266.235 440.746 264.683 438.837C259.057 431.915 253.403 424.959 248.481 417.876C242.199 408.836 237.065 399.53 234.664 389.717C233.723 385.884 235.848 381.848 239.347 377.862C242.88 373.837 248.006 369.646 253.536 365.446C255.859 363.682 258.247 361.921 260.627 360.166C263.946 357.717 267.25 355.281 270.341 352.862C275.639 348.718 280.186 344.722 282.922 341C285.269 337.728 286.306 335.073 285.353 332.716L285.349 332.706L285.345 332.696C274.354 303.16 286.142 274.403 306.301 252.126L306.308 252.118C312.77 245.159 320.789 237.803 333.886 232.892C334.142 232.746 334.394 232.659 334.581 232.595L334.602 232.588C334.824 232.512 334.961 232.462 335.089 232.383L335.156 232.342L335.23 232.316C352.969 226.022 373.837 225.728 392.253 229.083C410.642 232.434 426.746 239.455 434.869 247.946L434.873 247.95C442.857 256.421 446.106 265.796 448.732 275.186C449.121 276.58 449.497 277.972 449.872 279.362C452.031 287.363 454.161 295.259 458.774 302.717L458.776 302.72C461.549 307.249 464.937 311.306 468.779 315.346C478.938 325.806 492.148 334.121 506.053 341.311C515.561 346.227 525.353 350.599 534.7 354.771C539.036 356.706 543.275 358.599 547.346 360.483L547.347 360.484C551.82 362.568 556.968 364.777 562.502 367.153C574.845 372.45 589.108 378.572 602.084 385.965C620.87 396.667 637.274 410.194 641.387 428.09L641.388 428.093C645.019 444.19 636.461 459.659 626.264 471.783C618.96 480.588 610.315 488.449 601.484 496.214C600.236 497.311 598.984 498.407 597.732 499.503C590.11 506.173 582.466 512.863 575.478 520.142L575.472 520.149C567.247 528.495 561.656 536.817 558.031 545.169C549.71 564.575 551.867 584.836 555.1 609.638C558.548 635.538 549.342 655.731 533.385 670.483C517.455 685.209 494.822 694.497 471.373 698.723L284.025 658.728ZM284.025 658.728C298.995 694.556 366.512 698.686 409.573 701.32C412.657 701.509 415.615 701.69 418.42 701.874L284.025 658.728Z" stroke="#F4F4F5" stroke-width="1.5" stroke-miterlimit="10"/>
<path d="M321.21 209.79L321.137 209.816L321.071 209.857C320.965 209.922 320.803 209.974 320.509 210.06L320.473 210.07C320.25 210.135 319.932 210.227 319.652 210.384C305.07 215.86 296.017 223.961 288.95 231.64L288.946 231.644C266.579 256.306 253.504 288.032 265.613 320.332L265.615 320.336C266.603 322.93 265.573 326.043 262.844 329.524L262.84 329.53C259.697 333.62 254.536 338.002 248.553 342.536C245.095 345.156 241.406 347.796 237.701 350.448C234.985 352.391 232.261 354.341 229.614 356.293C223.39 360.882 217.631 365.456 213.659 369.848C209.724 374.198 207.341 378.588 208.367 382.752L208.368 382.755C211.078 393.587 216.858 403.841 223.93 413.796C229.461 421.582 235.81 429.221 242.13 436.825C243.886 438.938 245.64 441.048 247.373 443.158C263.377 462.637 277.595 482.059 276.768 503.891C276.023 522.197 279.452 538.911 283.95 555.391C285.425 560.795 287.011 566.165 288.604 571.555C291.879 582.64 295.181 593.815 297.593 605.565L297.594 605.567C298.025 607.635 297.753 610.092 296.895 612.887C296.038 615.677 294.614 618.75 292.803 622.024C289.464 628.062 284.862 634.694 280.215 641.389C279.819 641.96 279.423 642.531 279.027 643.103C274.001 650.354 269.045 657.628 265.798 664.16C264.174 667.428 262.961 670.543 262.387 673.402C261.813 676.26 261.867 678.915 262.84 681.22C267.357 692.086 276.18 700.295 287.514 706.544C298.846 712.793 312.735 717.11 327.477 720.178C352.452 725.376 380.004 727.011 401.923 728.312C405.872 728.546 409.637 728.77 413.172 729.001L413.176 729.002C432.683 730.19 452.567 728.255 472.075 724.814L472.077 724.813C498.122 720.145 523.258 709.928 540.948 693.621C558.665 677.288 568.885 654.864 565.066 625.922L565.066 625.92C561.391 598.527 559.282 576.279 568.542 555.034L568.544 555.031C572.528 545.773 578.715 536.74 587.744 527.439L587.749 527.434C595.519 519.262 604.169 511.75 612.846 504.216C613.92 503.283 614.995 502.35 616.068 501.415C625.799 492.941 635.423 484.337 643.642 474.685C655.05 461.361 664.774 444.033 660.792 426.423C656.393 406.46 638.209 391.437 617.35 379.595C602.936 371.413 587.092 364.671 573.421 358.855C567.297 356.249 561.609 353.829 556.681 351.548C551.956 349.356 547.023 347.158 541.973 344.908C531.822 340.384 521.203 335.652 510.874 330.346C495.421 322.41 480.709 313.234 469.356 301.667C465.059 297.247 461.388 292.552 458.128 287.599C452.988 279.356 450.635 270.61 448.252 261.751C447.835 260.202 447.417 258.65 446.984 257.097C444.078 246.686 440.467 236.296 431.524 226.918C422.552 217.51 404.681 209.762 384.289 206.09C363.869 202.413 340.756 202.79 321.21 209.79Z" stroke="#F4F4F5" stroke-width="1.5" stroke-miterlimit="10"/>
<path d="M680.397 424.524L680.397 424.523C675.722 402.6 655.703 386.084 632.71 373.053C617.001 364.15 599.747 356.794 584.838 350.438C577.917 347.488 571.501 344.752 565.98 342.178L565.975 342.176C560.868 339.837 555.529 337.488 550.058 335.081C538.829 330.141 527.047 324.957 515.589 319.116C498.562 310.436 482.345 300.347 469.9 287.557L469.895 287.552C465.117 282.726 460.983 277.639 457.681 272.058L457.676 272.05L457.67 272.041C451.976 262.976 449.361 253.34 446.714 243.586C446.26 241.913 445.805 240.236 445.334 238.558C442.121 227.13 438.148 215.729 428.359 205.436C418.538 195.11 398.901 186.636 376.476 182.617C354.023 178.593 328.607 179.004 307.139 186.608L307.115 186.617L307.092 186.627C306.821 186.743 306.594 186.81 306.326 186.888C306.062 186.965 305.759 187.053 305.401 187.206C289.307 193.25 279.428 202.088 271.753 210.487L271.752 210.489C247.378 237.298 232.8 272.006 246.057 307.502C247.092 310.533 245.863 313.89 242.734 317.848L242.732 317.85C239.237 322.301 233.48 327.078 226.807 332.022C222.961 334.872 218.855 337.746 214.732 340.633C211.691 342.761 208.642 344.896 205.679 347.032C198.737 352.04 192.32 357.028 187.903 361.807C183.529 366.541 180.902 371.301 182.073 375.794C185.091 387.646 191.531 398.846 199.408 409.713C205.545 418.177 212.584 426.477 219.59 434.738C221.574 437.078 223.555 439.414 225.512 441.75C243.317 462.999 259.108 484.203 258.025 508.137C257.111 528.329 260.91 546.771 265.883 564.941C267.469 570.739 269.172 576.5 270.881 582.281C274.538 594.65 278.221 607.107 280.84 620.189L280.842 620.195C281.318 622.477 281.008 625.186 280.046 628.264C279.086 631.337 277.494 634.721 275.473 638.326C271.737 644.99 266.588 652.317 261.392 659.71C260.964 660.32 260.535 660.93 260.107 661.54C254.5 669.528 248.968 677.538 245.329 684.728C243.508 688.325 242.143 691.749 241.485 694.889C240.827 698.028 240.863 700.937 241.91 703.457L241.911 703.459C246.904 715.385 256.646 724.38 269.161 731.218C281.672 738.055 297.002 742.763 313.263 746.098C340.55 751.695 370.589 753.449 394.534 754.848C399.119 755.115 403.48 755.37 407.556 755.636C429.287 757.074 451.117 754.75 472.347 750.941C500.881 745.839 528.567 734.633 548.042 716.745C567.545 698.83 578.789 674.228 574.397 642.474C570.278 612.484 568.002 588.278 578.415 565.18L578.418 565.173C582.784 555.219 589.553 545.253 599.38 535.005L599.382 535.002C608.198 525.726 618.007 517.326 627.825 508.917C628.738 508.135 629.651 507.354 630.563 506.571C641.274 497.382 651.882 488.09 661.016 477.592C673.865 463.037 684.542 444.093 680.397 424.524Z" stroke="#F4F4F5" stroke-width="1.5" stroke-miterlimit="10"/>
<path d="M575.31 333.241L575.311 333.241C581.155 335.933 587.912 338.794 595.198 341.878C611.617 348.83 630.718 356.917 648.091 366.756C673.162 380.954 694.957 398.966 700.019 422.834M575.31 333.241L699.285 422.989M575.31 333.241C569.529 330.586 563.471 327.922 557.261 325.191C545.245 319.908 532.655 314.372 520.382 308.154C501.783 298.731 484.01 287.787 470.263 273.901C465.22 268.647 460.611 263.158 456.816 256.959L456.812 256.952C450.588 247.021 447.747 236.533 444.881 225.95C444.381 224.104 443.88 222.255 443.36 220.406C439.87 207.984 435.539 195.624 424.792 184.424C414.134 173.293 392.733 164.092 368.274 159.726C343.787 155.356 316.069 155.801 292.684 164.119L292.66 164.128L292.638 164.137C291.978 164.423 291.457 164.64 290.946 164.684L290.843 164.693L290.747 164.729C273.154 171.341 262.456 180.911 253.966 190.039L253.963 190.042C227.354 219.025 211.494 256.705 225.91 295.401L225.914 295.412C227.165 298.62 225.784 302.414 222.237 306.631L222.228 306.642C218.325 311.459 211.942 316.622 204.565 321.956C200.327 325.021 195.805 328.112 191.265 331.216C187.893 333.521 184.512 335.833 181.229 338.146C173.565 343.545 166.488 348.918 161.612 354.066C156.781 359.166 153.885 364.281 155.141 369.106L155.142 369.108C158.519 381.918 165.628 394.036 174.304 405.802C181.014 414.901 188.69 423.827 196.333 432.714C198.568 435.314 200.801 437.91 203.005 440.505C222.556 463.528 239.868 486.522 238.629 512.443C237.547 534.517 241.655 554.637 247.098 574.444C248.906 581.024 250.859 587.561 252.818 594.121C256.768 607.341 260.746 620.66 263.634 634.638C264.131 637.137 263.761 640.102 262.681 643.464C261.602 646.821 259.833 650.519 257.597 654.455C253.479 661.704 247.83 669.674 242.129 677.716C241.636 678.412 241.143 679.108 240.65 679.805C234.474 688.528 228.388 697.273 224.373 705.12C222.364 709.045 220.856 712.778 220.119 716.198C219.383 719.617 219.405 722.778 220.525 725.513L220.527 725.517C225.941 738.507 236.577 748.291 250.264 755.718C263.949 763.144 280.733 768.242 298.54 771.842C328.218 777.842 360.867 779.706 386.944 781.195C392.152 781.492 397.097 781.774 401.704 782.071L401.706 782.071C425.411 783.558 449.22 781.285 472.4 777.088C503.421 771.551 533.608 759.417 554.869 739.946C576.159 720.449 588.473 693.612 583.709 658.814C579.366 626.208 576.937 600.252 588.04 574.892L588.041 574.89C592.765 564.031 600.13 553.356 610.772 542.378C620.351 532.603 630.89 523.715 641.435 514.823C642.636 513.81 643.837 512.797 645.036 511.783C656.757 501.874 668.344 491.838 678.394 480.493M575.31 333.241L677.833 479.996M700.019 422.834L699.285 422.989M700.019 422.834C700.019 422.834 700.019 422.833 700.019 422.833L699.285 422.989M700.019 422.834C704.515 443.919 692.451 464.743 678.394 480.493M699.285 422.989C703.703 443.706 691.856 464.284 677.833 479.996M678.394 480.493L677.833 479.996M678.394 480.493C678.393 480.494 678.393 480.495 678.392 480.495L677.833 479.996" stroke="#F4F4F5" stroke-width="1.5" stroke-miterlimit="10"/>
<path d="M584.624 324.087L584.626 324.088C590.923 326.975 598.218 330.046 606.09 333.36C623.839 340.831 644.525 349.538 663.338 360.169C690.483 375.506 714.055 395.013 719.404 420.945C724.288 443.978 711.042 466.443 695.771 483.396C684.807 495.587 672.297 506.36 659.682 517.032C658.727 517.84 657.772 518.647 656.817 519.454C645.138 529.32 633.461 539.185 622.862 550.125C611.424 562.049 603.676 573.418 598.37 585.215C586.329 612.413 588.709 640.352 593.494 675.549M584.624 324.087L592.752 675.654M584.624 324.087C578.465 321.287 572.007 318.475 565.38 315.59C552.282 309.888 538.523 303.899 525.117 297.142C504.942 286.975 485.663 275.116 470.822 260.005C465.313 254.361 460.443 248.45 456.168 241.839C449.398 231.094 446.293 219.688 443.163 208.192C442.623 206.21 442.083 204.225 441.523 202.241C437.724 188.776 433.031 175.402 421.444 163.394C409.83 151.358 386.721 141.425 360.282 136.708C333.815 131.986 303.849 132.46 278.432 141.392L278.407 141.401M584.624 324.087L278.407 141.401M593.494 675.549C593.495 675.551 593.495 675.552 593.495 675.553L592.752 675.654M593.494 675.549C593.494 675.549 593.494 675.549 593.494 675.549L592.752 675.654M593.494 675.549C598.84 713.265 585.504 742.28 562.425 763.332C539.376 784.357 506.634 797.426 473.126 803.396M592.752 675.654C603.368 750.556 539.836 790.748 472.993 802.658M473.126 803.396C473.126 803.396 473.127 803.396 473.127 803.396L472.993 802.658M473.126 803.396C447.789 807.998 422.034 810.659 396.323 808.905C390.761 808.527 384.738 808.174 378.368 807.801C350.501 806.17 316.006 804.151 284.556 797.879C265.231 794.025 247.008 788.557 232.145 780.561C217.28 772.562 205.726 762.006 199.835 747.958L199.835 747.957C198.614 745.035 198.586 741.642 199.387 737.958C200.188 734.273 201.83 730.241 204.021 725.993C208.399 717.5 215.039 708.014 221.782 698.541C222.312 697.797 222.842 697.052 223.372 696.308C229.604 687.564 235.785 678.891 240.291 671.007C242.735 666.732 244.67 662.715 245.852 659.07C247.035 655.418 247.443 652.197 246.901 649.484M473.126 803.396C473.126 803.396 473.125 803.396 473.124 803.396L472.993 802.658M472.993 802.658L246.901 649.484M246.901 649.484C243.805 634.173 239.446 619.575 235.115 605.071M246.901 649.484L235.115 605.071M278.407 141.401L278.383 141.411M278.407 141.401L278.383 141.411M278.383 141.411C277.724 141.696 277.203 141.914 276.692 141.958L276.588 141.967M278.383 141.411L276.588 141.967M276.588 141.967L276.49 142.004M276.588 141.967L276.49 142.004M276.49 142.004C257.63 149.164 245.899 159.481 236.608 169.56L236.605 169.563M276.49 142.004L236.605 169.563M236.605 169.563C208.009 200.91 190.627 241.355 206.194 283.248C207.494 286.894 205.898 290.712 202.154 295.404C197.843 300.587 190.849 306.145 182.793 311.883C178.166 315.178 173.233 318.503 168.283 321.839C164.601 324.321 160.909 326.809 157.328 329.296C148.972 335.098 141.263 340.862 135.947 346.365C133.289 349.118 131.198 351.836 129.929 354.494C128.657 357.159 128.193 359.803 128.864 362.36L128.864 362.363M236.605 169.563L128.864 362.363M128.864 362.363C132.549 376.192 140.318 389.256 149.801 401.935C157.117 411.717 165.483 421.306 173.813 430.854C176.275 433.677 178.734 436.495 181.162 439.314C191.819 451.689 201.885 464.079 209.101 476.899C216.313 489.712 220.652 502.911 219.905 516.908L219.905 516.909M128.864 362.363L219.905 516.909M219.905 516.909C218.655 540.868 223.131 562.715 229.049 584.211M219.905 516.909L229.049 584.211M229.049 584.211C230.97 591.188 233.039 598.119 235.115 605.071M229.049 584.211L235.115 605.071" stroke="#F4F4F5" stroke-width="1.5" stroke-miterlimit="10"/>
<path d="M739.027 419.259L739.027 419.261C744.039 443.818 729.856 468.119 713.147 486.3C701.269 499.337 687.781 510.853 674.221 522.318C673.674 522.78 673.127 523.243 672.58 523.705C659.551 534.717 646.513 545.737 634.754 558.107L634.745 558.117C622.283 570.781 613.973 583.294 608.284 595.79C595.304 624.826 597.853 654.728 603.082 692.526C608.779 733.068 594.367 764.262 569.503 786.896C544.668 809.504 509.43 823.556 473.433 829.96L473.431 829.96C446.134 834.731 418.419 837.561 390.729 835.758C384.921 835.387 378.641 835.042 372.004 834.678C341.844 833.021 304.308 830.959 270.105 824.231C249.235 820.126 229.558 814.275 213.522 805.693C197.484 797.109 185.037 785.764 178.725 770.651L178.724 770.648C177.431 767.512 177.42 763.867 178.305 759.902C179.19 755.937 180.983 751.594 183.37 747.017C188.142 737.866 195.357 727.645 202.681 717.435C203.243 716.651 203.805 715.868 204.368 715.085C211.149 705.643 217.878 696.275 222.781 687.765C225.434 683.159 227.537 678.832 228.822 674.903C230.11 670.969 230.557 667.495 229.969 664.567C226.624 648.089 221.898 632.409 217.202 616.829C214.952 609.364 212.709 601.921 210.628 594.425C204.214 571.322 199.374 547.802 200.783 521.85L201.532 521.891L200.783 521.85C201.604 506.804 196.919 492.619 189.126 478.857C181.328 465.089 170.442 451.787 158.911 438.513C156.217 435.411 153.486 432.31 150.752 429.205C141.805 419.043 132.823 408.842 124.951 398.444C114.671 384.863 106.232 370.881 102.189 356.094L102.189 356.092C101.445 353.348 101.93 350.51 103.298 347.649C104.662 344.796 106.922 341.879 109.802 338.928C115.561 333.025 123.929 326.855 133.005 320.647C136.927 317.965 140.971 315.282 145.005 312.606C150.347 309.062 155.671 305.531 160.663 302.032C169.413 295.899 177.007 289.957 181.67 284.413C185.805 279.497 187.388 275.232 186.062 271.354C169.381 226.7 188.027 183.071 218.852 149.555C228.937 138.53 241.483 127.484 261.844 119.974C262.175 119.832 262.556 119.687 262.917 119.549C263.293 119.406 263.649 119.27 263.948 119.14L263.972 119.13L263.996 119.122C291.329 109.475 323.599 108.968 352.099 114.036C380.571 119.1 405.444 129.759 417.897 142.601C417.897 142.601 417.897 142.601 417.897 142.601L417.359 143.124C431.599 157.783 436.1 174.367 440.614 190.996C443.968 203.352 447.329 215.734 454.696 227.372L739.027 419.259ZM739.027 419.259C733.293 391.381 707.943 370.378 678.72 353.872C658.239 342.304 635.699 332.865 616.441 324.801C608.208 321.353 600.575 318.157 593.959 315.152M739.027 419.259L455.328 226.967C459.858 233.996 465.22 240.522 471.2 246.563C487.334 262.663 508.166 275.323 529.912 286.207C544.077 293.297 558.586 299.612 572.424 305.635C579.847 308.867 587.078 312.014 593.959 315.152M593.959 315.152L593.648 315.835M593.959 315.152C593.959 315.152 593.958 315.152 593.958 315.152L593.648 315.835M593.648 315.835C586.791 312.708 579.572 309.565 572.153 306.336C537.033 291.048 497.448 273.816 470.669 247.093L738.292 419.411C728.666 372.608 662.937 345.085 616.204 325.515C607.956 322.061 600.3 318.855 593.648 315.835Z" stroke="#F4F4F5" stroke-width="1.5" stroke-miterlimit="10"/>
<path d="M247.179 97.2761L247.188 97.2734C247.601 97.1314 247.962 96.9937 248.335 96.8514L248.344 96.8481C248.711 96.7081 249.09 96.5634 249.525 96.4139C278.781 86.1627 313.348 85.5671 343.877 90.9277C374.378 96.2832 401.014 107.615 414.315 121.374C427.707 135.205 433.068 150.611 437.427 166.114C438.041 168.298 438.635 170.481 439.228 172.662C442.854 185.998 446.453 199.232 454.447 211.655C459.474 219.309 465.094 226.252 471.543 232.687L471.013 233.218L471.543 232.688C488.88 250.003 511.218 263.578 534.511 275.207C549.878 282.88 565.617 289.686 580.595 296.163C588.336 299.511 595.875 302.77 603.054 306.017C610.074 309.178 618.166 312.541 626.892 316.167C647.602 324.774 671.889 334.867 693.939 347.287C725.264 364.93 752.391 387.428 758.412 417.372C763.811 443.876 748.45 469.816 730.527 489.199C730.527 489.199 730.526 489.2 730.526 489.2L729.975 488.691L247.179 97.2761ZM247.179 97.2761L247.171 97.2792M247.179 97.2761L247.171 97.2792M247.171 97.2792C225.315 105.355 211.949 117.131 201.262 128.871C168.202 164.561 148.274 211.162 166.114 259.016L166.116 259.021M247.171 97.2792L166.116 259.021M166.116 259.021C167.66 263.073 165.719 267.792 161.359 272.976C156.287 278.886 148.083 285.223 138.653 291.759C133.272 295.49 127.537 299.255 121.783 303.033C117.439 305.885 113.086 308.744 108.867 311.599C99.0974 318.209 90.0977 324.77 83.8996 331.028C80.8 334.158 78.3682 337.244 76.8965 340.256C75.421 343.275 74.8907 346.264 75.6747 349.146L75.676 349.151M166.116 259.021L75.676 349.151M75.676 349.151C80.0808 364.951 89.1919 379.877 100.271 394.367C108.743 405.446 118.396 416.308 128.008 427.125C130.964 430.45 133.916 433.772 136.828 437.094C149.23 451.241 160.931 465.413 169.307 480.082C177.679 494.745 182.703 509.861 181.804 525.9C180.227 553.735 185.381 578.986 192.242 603.781C194.495 611.925 196.929 620.009 199.37 628.117C204.373 644.734 209.407 661.453 212.98 678.995C213.614 682.137 213.124 685.865 211.728 690.083C210.333 694.294 208.055 698.934 205.183 703.871C199.887 712.975 192.628 722.997 185.311 733.1C184.688 733.96 184.064 734.82 183.441 735.681C175.522 746.629 167.725 757.587 162.57 767.396C159.992 772.303 158.057 776.954 157.103 781.2C156.149 785.445 156.164 789.342 157.559 792.691C164.292 808.867 177.631 821.001 194.839 830.174C212.044 839.346 233.169 845.587 255.572 849.958C292.101 857.087 332.157 859.266 364.357 861.017C371.643 861.414 378.527 861.788 384.877 862.193L384.878 862.193M75.676 349.151L384.878 862.193M384.878 862.193C414.547 864.045 444.442 861.028 473.466 855.889L473.466 855.889M384.878 862.193L473.466 855.889M473.466 855.889C512.06 849.041 549.8 834.06 576.367 809.874M473.466 855.889L576.367 809.874M576.367 809.874C602.963 785.661 618.336 752.241 612.157 708.663M576.367 809.874L612.157 708.663M612.157 708.663C606.505 668.49 603.985 636.385 617.887 605.29M612.157 708.663L617.887 605.29M617.887 605.29C623.935 591.89 632.841 578.665 646.104 565.049L617.887 605.29Z" stroke="#F4F4F5" stroke-width="1.5" stroke-miterlimit="10"/>
<path d="M747.906 492.1L747.905 492.1C734.197 506.833 718.744 519.782 703.3 532.645L702.154 533.6C687.082 546.152 672.059 558.664 658.636 572.753L658.628 572.761C644.547 587.109 635.044 601.045 628.636 615.353C614.012 648.27 616.483 682.36 622.578 725.126L622.578 725.128C629.119 771.641 612.671 807.242 584.286 833.009C555.931 858.749 515.691 874.66 474.609 881.941C443.64 887.468 411.782 890.655 380.111 888.535C372.849 888.054 364.931 887.615 356.531 887.151C322.441 885.264 280.408 882.938 242.013 875.52C218.079 870.896 195.508 864.285 177.121 854.542C158.732 844.798 144.475 831.893 137.266 814.659C135.771 811.125 135.751 807 136.769 802.496C137.788 797.992 139.858 793.049 142.619 787.83C148.139 777.395 156.493 765.723 164.981 754.053C165.639 753.149 166.298 752.245 166.956 751.341C174.808 740.559 182.604 729.855 188.291 720.134C191.372 714.868 193.817 709.918 195.315 705.424C196.815 700.924 197.344 696.943 196.664 693.586C192.842 674.875 187.438 657.047 182.068 639.329C179.452 630.697 176.843 622.09 174.429 613.42C167.071 586.992 161.553 560.067 163.298 530.349L163.298 530.348C164.325 513.256 158.971 497.167 150.012 481.574C141.049 465.974 128.503 450.914 115.201 435.883C112.067 432.34 108.889 428.799 105.707 425.253C95.4065 413.773 85.0627 402.244 75.9847 390.48C64.0991 375.078 54.3291 359.205 49.6166 342.387C48.7612 339.343 49.3124 336.188 50.8804 333C52.4442 329.82 55.0394 326.562 58.3541 323.257C64.9826 316.649 74.6241 309.725 85.1017 302.738C89.552 299.77 94.1455 296.795 98.7327 293.825C104.984 289.777 111.224 285.737 117.073 281.732C127.205 274.793 136.034 268.044 141.508 261.713L141.515 261.705L141.522 261.698C146.485 256.272 148.427 251.323 146.834 246.826C127.843 195.775 149.293 146.409 184.341 108.354L184.341 108.354C195.839 95.8897 210.016 83.3858 233.353 74.7411C234.017 74.4555 234.892 74.1552 235.727 73.8682C235.728 73.8679 235.729 73.8676 235.73 73.8673L235.974 74.5766C298.029 52.9708 382.911 72.0322 410.885 101.048L747.906 492.1ZM747.906 492.1C767.243 471.277 783.562 443.717 778.035 415.687L778.035 415.684M747.906 492.1L778.035 415.684M778.035 415.684C771.627 383.796 742.724 359.801 709.349 340.988M778.035 415.684L709.349 340.988M709.349 340.988C685.758 327.69 659.775 316.901 637.68 307.726M709.349 340.988L637.68 307.726M637.68 307.726C628.501 303.914 619.993 300.381 612.606 297.063L637.68 307.726Z" stroke="#F4F4F5" stroke-width="1.5" stroke-miterlimit="10"/>
<path d="M631.89 741.466L631.89 741.465C627.223 708.905 624.572 681.168 629.201 655.268C633.823 629.401 645.718 605.318 670.244 580.109C684.375 565.599 700.042 552.652 715.738 539.681C716.481 539.067 717.224 538.453 717.966 537.839C734.393 524.258 750.77 510.571 765.286 494.999C785.836 472.974 803.335 443.774 797.42 413.798C790.736 379.952 760 354.467 724.493 334.492C699.398 320.374 671.76 308.927 648.3 299.211C638.553 295.174 629.527 291.436 621.705 287.929C613.371 284.169 604.599 280.395 595.583 276.517C574.011 267.237 551.047 257.359 529.38 245.638C498.671 229.026 470.697 208.776 453.168 181.443L453.168 181.442C444.09 167.331 440.004 152.358 435.895 137.301C435.219 134.822 434.542 132.341 433.842 129.861C428.898 112.346 422.818 94.9701 407.622 79.3172C392.396 63.6345 361.666 50.6787 326.582 44.7017C291.469 38.7199 251.824 39.6974 218.68 52.0459C193.848 61.2569 178.634 74.5094 166.531 87.6907C129.253 127.917 106.521 180.251 126.429 234.3C127.618 237.556 126.936 241.101 124.663 244.96C122.386 248.827 118.561 252.918 113.643 257.175C103.81 265.689 89.8013 274.711 75.6591 283.794L75.168 284.109C61.217 293.069 47.1853 302.08 37.1069 310.653C32.0091 314.99 27.8789 319.25 25.2808 323.372C22.6818 327.496 21.5606 331.575 22.6663 335.479C27.6818 353.261 38.0945 370.054 50.7681 386.36C60.4291 398.79 71.436 410.976 82.4019 423.116C85.8174 426.897 89.2289 430.674 92.5945 434.453C106.784 450.382 120.169 466.352 129.731 482.9C139.29 499.441 145.002 516.514 143.901 534.655L144.65 534.7L143.901 534.655C141.989 566.256 147.82 594.912 155.626 623.032C158.212 632.349 161.011 641.595 163.818 650.869C169.496 669.626 175.208 688.494 179.258 708.271C179.984 711.842 179.415 716.08 177.812 720.869C176.211 725.651 173.598 730.921 170.309 736.525C164.209 746.918 155.837 758.371 147.411 769.896C146.745 770.808 146.079 771.719 145.413 772.631C136.344 785.051 127.416 797.466 121.502 808.549C118.545 814.091 116.323 819.334 115.219 824.105C114.116 828.873 114.116 833.231 115.682 836.953C123.312 855.251 138.476 868.945 158.051 879.277C177.625 889.607 201.663 896.606 227.144 901.495C267.818 909.3 312.296 911.748 348.339 913.732C357.444 914.233 366.011 914.705 373.842 915.226L373.844 915.226C407.712 917.376 441.75 914.002 474.663 908.088C518.223 900.263 561.013 883.364 591.181 856.04C621.379 828.688 638.903 790.906 631.89 741.466Z" stroke="#F4F4F5" stroke-width="1.5" stroke-miterlimit="10"/>
</svg>
