<svg width="1440" height="212" viewBox="0 0 1440 212" fill="none" xmlns="http://www.w3.org/2000/svg">
<g opacity="0.04">
<path d="M821.135 83.9012L821.119 83.8971L821.103 83.8934C818.688 83.3503 814.151 82.8796 809.038 82.6437C803.903 82.4069 798.11 82.4036 793.165 82.8183L793.161 82.8186C789.701 83.1267 787.353 83.5915 785.492 83.9598L785.489 83.9604L785.47 83.9641L785.452 83.9689C783.632 84.447 782.157 84.946 781.058 85.4592C779.972 85.9657 779.195 86.5115 778.852 87.1117C778.678 87.417 778.597 87.7677 778.691 88.1652C778.789 88.5778 779.063 88.9853 779.472 89.3588C780.232 90.0532 781.423 90.5999 782.836 91.0592C784.245 91.5385 785.115 91.9863 785.635 92.3702C786.112 92.7226 786.317 93.0354 786.396 93.3626C786.484 93.7306 786.417 94.1563 786.201 94.6519C785.988 95.1416 785.656 95.6437 785.289 96.1754C785.244 96.2403 785.199 96.3057 785.153 96.3715C784.833 96.834 784.497 97.3173 784.236 97.8028C783.938 98.3549 783.708 98.9551 783.714 99.5932C783.72 100.25 783.979 100.975 784.686 101.716C785.37 102.431 786.38 103.061 787.701 103.635C788.7 104.09 789.348 104.71 790.29 105.61C790.499 105.81 790.722 106.023 790.967 106.251C792.282 107.478 793.975 108.859 796.936 110.07C799.851 111.261 803.938 112.267 810.054 112.876C816.178 113.485 824.39 113.703 835.575 113.286C843.38 113.003 849.107 112.366 852.849 111.577C854.717 111.184 856.117 110.748 857.035 110.287C857.494 110.057 857.855 109.81 858.09 109.542C858.305 109.297 858.452 108.993 858.398 108.621C858.421 108.005 858.044 107.413 857.647 106.929C857.448 106.688 857.228 106.453 857.038 106.251L857.031 106.243C856.83 106.029 856.662 105.849 856.519 105.675C856.241 105.338 856.14 105.123 856.16 104.926C856.183 104.699 856.376 104.364 857.135 103.973C858.183 103.436 860.132 102.893 862.53 102.341C864.232 101.949 866.123 101.561 868.025 101.17C868.787 101.013 869.551 100.856 870.306 100.698C872.929 100.15 875.436 99.5925 877.277 99.0193C878.195 98.7334 878.974 98.4356 879.523 98.1215C879.798 97.9644 880.033 97.7933 880.199 97.6038C880.354 97.4257 880.479 97.1968 880.463 96.907C880.467 96.6919 880.394 96.4532 880.224 96.2064C880.051 95.9546 879.81 95.7428 879.565 95.5721C879.098 95.2466 878.5 94.9923 877.885 94.7819C876.631 94.3526 874.881 93.9671 872.83 93.6082C868.706 92.8865 863.11 92.2308 857.252 91.5859C855.984 91.4463 854.703 91.3072 853.421 91.1679C848.765 90.6621 844.093 90.1546 839.959 89.6173C837.324 89.2748 834.921 88.9218 832.891 88.5518C830.847 88.1794 829.238 87.7997 828.165 87.4169C826.997 86.9908 826.441 86.5786 825.762 86.0749C825.655 85.9952 825.544 85.9132 825.428 85.8286C824.98 85.5031 824.461 85.154 823.758 84.8166C823.063 84.4825 822.226 84.1787 821.135 83.9012Z" stroke="#F4F4F5" stroke-width="1.5" stroke-miterlimit="10"/>
<path d="M920.747 98.4721L920.753 98.4696C921.492 98.133 922.123 97.7891 922.588 97.4356C923.041 97.0913 923.395 96.696 923.475 96.2304C923.516 95.9872 923.485 95.7088 923.333 95.4036C923.18 95.0954 922.927 94.8092 922.614 94.5543C922.02 94.0707 921.184 93.6783 920.202 93.3349L920.196 93.3327C918.058 92.5976 914.825 91.949 910.98 91.3598C907.112 90.7668 902.546 90.223 897.707 89.7165C891.572 89.0743 884.966 88.489 878.765 87.9397C875.195 87.6234 871.76 87.3191 868.625 87.0226C867.069 86.8716 865.496 86.7209 863.918 86.5697C858.116 86.014 852.235 85.4507 846.799 84.8348C839.872 84.05 833.727 83.1861 829.426 82.1589L829.417 82.1568C827.738 81.7701 826.562 81.3805 825.337 80.9077L825.328 80.9044L825.32 80.9013C823.844 80.3544 823.062 79.8293 822.145 79.213C821.793 78.9771 821.422 78.7277 820.984 78.4587C819.396 77.4823 817.389 76.5899 813.324 75.8187C808.939 74.9243 800.3 74.1734 790.463 73.8036C780.604 73.433 769.464 73.4426 760.049 74.0894L760.041 74.0895C759.816 74.0927 759.656 74.095 759.501 74.1108C759.348 74.1264 759.205 74.1545 759.005 74.194C752.625 74.7128 748.34 75.3727 745.105 76.107C739.119 77.3855 734.873 78.8057 732.971 80.3198C732.042 81.0597 731.508 81.9504 731.969 83.0235C732.43 84.0973 733.717 84.9913 735.349 85.7282L735.328 85.819C735.297 85.9516 735.161 86.1474 734.845 86.3928C734.541 86.6294 734.118 86.8767 733.602 87.134C732.667 87.6007 731.486 88.0726 730.28 88.5543C730.155 88.6044 730.029 88.6546 729.904 88.7049C728.585 89.2327 727.261 89.7742 726.302 90.3166C725.823 90.5873 725.409 90.8724 725.13 91.1735C724.867 91.4583 724.644 91.8403 724.775 92.3317L724.775 92.3317L724.776 92.3372C725.149 93.6894 726.467 94.9312 728.014 96.018C729.57 97.1107 731.537 98.1727 733.5 99.1963C733.914 99.4116 734.327 99.6254 734.738 99.8381C736.315 100.654 737.862 101.454 739.255 102.267C741.005 103.288 742.365 104.245 743.17 105.161C744.143 106.455 745.802 107.744 747.51 108.979C748.063 109.378 748.624 109.774 749.186 110.17C750.379 111.013 751.576 111.857 752.701 112.741C752.635 112.881 752.46 113.071 752.149 113.305C751.633 113.693 750.887 114.104 750.1 114.537C749.931 114.63 749.761 114.723 749.591 114.818C748.666 115.332 747.71 115.893 747.254 116.449C747.04 116.71 746.822 117.098 747.024 117.603C747.268 118.211 747.941 118.623 748.554 118.871L748.556 118.871C750.813 119.778 754.313 120.506 758.569 121.105C762.86 121.709 768.027 122.196 773.672 122.585C784.966 123.362 798.226 123.748 810.318 123.873L810.321 123.873C818.544 123.925 827.185 123.801 836.246 123.501C849.841 123.05 861.247 122.033 869.078 120.635C872.988 119.937 876.039 119.139 878.028 118.254C879.02 117.813 879.779 117.337 880.241 116.817C880.694 116.307 880.916 115.692 880.641 114.961C880.379 114.172 879.877 113.424 879.435 112.784C879.398 112.73 879.362 112.677 879.326 112.626C878.908 112.021 878.567 111.529 878.37 111.051C878.173 110.574 878.122 110.112 878.398 109.627C878.687 109.122 879.345 108.57 880.659 107.993L880.674 107.987L880.688 107.98C882.626 106.968 886.63 105.985 891.749 104.972L891.754 104.971C894.781 104.346 897.901 103.751 900.963 103.168C903.54 102.676 906.075 102.193 908.477 101.707C913.676 100.654 918.186 99.5999 920.747 98.4721Z" stroke="#F4F4F5" stroke-width="1.5" stroke-miterlimit="10"/>
<path d="M961.163 99.6169L961.165 99.6164C964.017 98.7268 966.455 97.7723 967.571 96.7362C968.113 96.2328 968.489 95.5786 968.115 94.7521C967.724 93.8885 966.691 93.1984 965.456 92.6486C964.152 92.044 962.38 91.503 960.288 91.0059C958.172 90.5033 955.663 90.0306 952.862 89.5836C947.257 88.6895 940.429 87.8901 933.143 87.1631C923.48 86.1989 912.971 85.3584 903.403 84.5932C898.549 84.205 893.937 83.8361 889.802 83.4804C887.773 83.3026 885.711 83.1239 883.629 82.9433C864.223 81.2605 842.989 79.4192 829.676 76.7775L829.672 76.7768C826.88 76.2313 824.546 75.5966 822.758 75.0394C820.026 74.1341 818.6 73.2387 817.053 72.2675C816.612 71.9909 816.162 71.7081 815.669 71.4172C813.381 70.0675 810.551 68.8056 804.511 67.6793C798.155 66.4307 785.407 65.398 770.902 64.9034C756.378 64.4081 740.013 64.4501 726.393 65.3701C726.153 65.3736 725.883 65.3775 725.676 65.3924C725.576 65.3996 725.448 65.412 725.339 65.4399C725.309 65.4476 725.261 65.4611 725.21 65.485C715.442 66.2226 709.296 67.1612 704.197 68.1708L704.193 68.1714C695.862 69.8675 689.585 71.7831 686.565 73.8318C685.805 74.3474 685.229 74.886 684.882 75.4518C684.536 76.0163 684.399 76.6411 684.593 77.3271C684.98 78.6944 686.524 79.8953 688.718 80.9239C688.708 80.9327 688.698 80.942 688.686 80.9515C688.586 81.0368 688.444 81.1305 688.26 81.2316L688.254 81.2346L688.249 81.2378C687.238 81.8306 685.102 82.4798 682.403 83.1634C680.543 83.6346 678.459 84.1121 676.361 84.5927C675.439 84.804 674.515 85.0158 673.605 85.228C670.642 85.9196 667.836 86.6154 665.881 87.2957C664.908 87.634 664.106 87.9816 663.601 88.3414C663.35 88.5198 663.136 88.7257 663.031 88.9688C662.924 89.216 662.908 89.5657 663.202 89.9775C663.85 90.9089 664.949 91.7448 666.219 92.4913C667.506 93.2475 669.076 93.9741 670.795 94.6767C673.953 95.9674 677.763 97.2344 681.521 98.4843C681.851 98.594 682.18 98.7036 682.509 98.8131C686.616 100.181 690.581 101.527 693.643 102.892C695.175 103.574 696.421 104.235 697.325 104.873C698.223 105.508 698.697 106.056 698.868 106.55L698.871 106.561L698.875 106.571C699.698 108.74 702.241 110.781 704.929 112.659C705.883 113.326 706.903 114.005 707.92 114.68C708.358 114.972 708.796 115.263 709.227 115.552C710.603 116.475 711.937 117.397 713.14 118.334C713.114 118.379 713.07 118.439 712.994 118.515C712.705 118.802 712.134 119.139 711.325 119.515C709.89 120.18 707.864 120.898 705.8 121.63C705.556 121.716 705.312 121.802 705.069 121.889C702.785 122.7 700.522 123.527 699.161 124.292C698.818 124.486 698.519 124.682 698.287 124.88C698.062 125.074 697.87 125.295 697.787 125.548C697.702 125.807 697.712 126.176 698.054 126.593C698.373 126.983 698.843 127.241 699.259 127.412L699.27 127.417L699.282 127.421C700.993 128.091 703.258 128.675 705.936 129.194C708.627 129.716 711.786 130.181 715.307 130.596C722.349 131.427 730.884 132.065 740.097 132.557C758.524 133.54 779.715 133.939 797.197 134.115C810.081 134.271 823.758 133.99 837.379 133.624L837.383 133.624C856.771 133.005 873.745 131.631 885.606 129.622C891.531 128.619 896.214 127.451 899.286 126.126C900.82 125.464 901.983 124.749 902.692 123.973C903.397 123.201 903.704 122.308 903.341 121.282L903.339 121.276L903.337 121.269C902.969 120.293 902.353 119.353 901.808 118.521L901.757 118.443C901.179 117.561 900.698 116.81 900.464 116.089C900.038 114.777 900.366 113.308 904.066 111.753C907.428 110.444 912.317 109.104 919.293 107.816L919.297 107.815C924.013 106.911 929.024 106.043 933.964 105.188C944.554 103.353 954.82 101.575 961.163 99.6169Z" stroke="#F4F4F5" stroke-width="1.5" stroke-miterlimit="10"/>
<path d="M1001.61 100.747L1001.61 100.748C993.181 102.939 981.244 104.922 969.186 106.925C961.871 108.14 954.512 109.362 947.865 110.643L947.856 110.645C938.505 112.31 932.229 113.926 928.033 115.586C923.208 117.509 922.165 119.385 922.424 121.154C922.556 122.06 923.038 123.011 923.705 124.064C924.025 124.569 924.378 125.083 924.75 125.623L924.799 125.695C925.184 126.255 925.585 126.84 925.96 127.439M1001.61 100.747L925.249 127.518M1001.61 100.747C1005.89 99.6208 1009.68 98.3795 1011.77 97.0621C1012.79 96.4176 1013.54 95.6824 1013.57 94.8193C1013.59 94.3564 1013.41 93.8511 1012.97 93.3398C1012.55 92.8473 1011.94 92.4162 1011.23 92.0352L1011.22 92.0291C1009.66 91.2119 1007.43 90.4853 1004.75 89.8197C1002.04 89.148 998.776 88.517 995.102 87.9213C987.752 86.7296 978.694 85.6692 969.018 84.7102C956.294 83.449 942.458 82.3593 929.993 81.3777C923.508 80.8669 917.395 80.3854 912.002 79.9242C907.622 79.5495 903.089 79.175 898.482 78.7945C874.328 76.7996 848.146 74.6371 831.489 71.383L831.481 71.3814L831.473 71.3799C827.588 70.6808 824.66 69.8856 821.695 69.0789M1001.61 100.747L821.695 69.0789M925.96 127.439C925.961 127.441 925.962 127.442 925.962 127.443L925.249 127.518M925.96 127.439C925.96 127.439 925.959 127.438 925.959 127.437L925.249 127.518M925.96 127.439C926.824 128.798 926.684 130.012 925.904 131.059C925.128 132.102 923.671 133.053 921.675 133.928C917.677 135.684 911.338 137.213 903.302 138.518C887.215 141.13 864.166 142.867 838.986 143.655M925.249 127.518C930.678 136.045 888.957 141.415 838.626 142.989M838.986 143.655C838.986 143.655 838.986 143.655 838.986 143.655L838.626 142.989M838.986 143.655C820.874 144.255 802.586 144.518 785.093 144.342L784.769 143.676M838.986 143.655C838.985 143.655 838.985 143.655 838.985 143.655L838.626 142.989M838.626 142.989L784.769 143.676M784.769 143.676C739.526 143.217 668.331 142.022 651.593 135.361C647.874 133.89 655.592 131.549 663.226 129.232C670.104 127.145 676.913 125.079 675.226 123.69C672.891 121.833 670.08 120.06 667.332 118.328C661.907 114.906 656.733 111.643 655.974 108.204C655.252 104.155 641.974 100.482 628.74 96.8204C617.249 93.6413 605.79 90.4711 602.608 87.0719C601.106 85.3334 612.292 83.3239 623.38 81.3319C631.079 79.9488 638.731 78.5741 642.057 77.3044L642.057 77.3043C643.274 76.6905 644.491 76.0766 643.214 75.5838C631.279 70.3019 642.365 65.0309 664.172 60.7137C670.668 59.4277 679.194 58.1126 692.552 57.2395C692.806 57.2358 693.049 57.211 693.291 57.1863C693.534 57.1615 693.777 57.1367 694.031 57.1331C730.217 54.9102 780.396 57.0024 797.33 60.0825C807.1 61.8274 810.217 63.7895 813.353 65.764C815.461 67.0916 817.579 68.4248 821.734 69.7012M784.769 143.676L927.457 114.961C931.704 113.282 938.025 111.657 947.392 109.989C954.08 108.701 961.459 107.475 968.782 106.259C980.813 104.261 992.691 102.289 1001.1 100.103C1009.65 97.8501 1015.96 95.2036 1011 92.5482C1001.7 87.668 961.676 84.5159 930.271 82.0426C923.782 81.5316 917.662 81.0495 912.256 80.5872C907.887 80.2134 903.362 79.8397 898.759 79.4596C874.611 77.4654 848.354 75.297 831.631 72.0302C827.685 71.3201 824.711 70.5109 821.736 69.7017L821.734 69.7012M784.769 143.676L785.093 144.342C762.471 144.113 733.347 143.699 707.783 142.51C695.002 141.915 683.097 141.126 673.333 140.067C668.451 139.537 664.092 138.939 660.419 138.261C656.763 137.587 653.726 136.823 651.513 135.942C650.987 135.734 650.392 135.413 650.046 134.918C649.691 134.409 649.787 133.994 649.948 133.717C650.267 133.169 651.128 132.652 652.202 132.157C654.403 131.143 657.951 130.036 661.558 128.938C661.935 128.823 662.312 128.709 662.689 128.595C665.945 127.607 669.158 126.632 671.468 125.732C672.763 125.227 673.728 124.764 674.259 124.355C674.489 124.178 674.598 124.039 674.641 123.948C672.996 122.654 671.1 121.388 669.125 120.125C668.44 119.686 667.74 119.245 667.04 118.803C665.69 117.952 664.338 117.099 663.078 116.26C661.156 114.979 659.354 113.668 657.95 112.32C656.535 110.962 655.489 109.532 655.162 108.045L655.159 108.034L655.157 108.023C655.043 107.382 654.472 106.686 653.234 105.869C651.984 105.044 650.192 104.194 647.958 103.324C643.499 101.588 637.575 99.8851 631.405 98.1702C630.54 97.9297 629.669 97.689 628.799 97.4481C623.492 95.9801 618.154 94.5031 613.637 93.0033C611.007 92.13 608.619 91.2369 606.655 90.3178C604.719 89.4118 603.059 88.4187 602.023 87.312L602.006 87.2944L601.991 87.2764C601.549 86.7654 601.603 86.332 601.766 86.0512C601.926 85.7769 602.236 85.543 602.607 85.3363C603.359 84.9169 604.556 84.5042 606.037 84.0961C609.01 83.2765 613.286 82.4337 617.867 81.5909C619.526 81.2855 621.226 80.9801 622.922 80.6755C625.921 80.1368 628.907 79.6004 631.637 79.0701C635.905 78.2412 639.481 77.4392 641.463 76.6871C641.991 76.421 642.445 76.1871 642.719 75.9792C639.858 74.6622 637.958 73.1582 637.575 71.4849C637.387 70.6616 637.605 69.9054 638.09 69.2118C638.578 68.5155 639.361 67.8467 640.388 67.2012C644.476 64.6317 652.791 62.2195 663.695 60.0607C670.22 58.7691 678.777 57.45 692.167 56.5748L692.187 56.5734L692.208 56.5731C692.421 56.5701 692.63 56.5492 692.879 56.5238L692.892 56.5224C693.121 56.4991 693.385 56.4722 693.667 56.467C711.788 55.3547 733.399 55.3226 752.597 55.9532C771.779 56.5833 788.62 57.8771 797.172 59.4322C805.439 60.909 809.118 62.5631 812.066 64.314C812.639 64.6545 813.171 64.989 813.695 65.3185C815.779 66.6293 817.736 67.8608 821.695 69.0789M784.769 143.676L821.695 69.0789M821.734 69.7012L821.714 69.0849C821.708 69.0829 821.701 69.0809 821.695 69.0789M821.734 69.7012L821.675 69.0736C821.682 69.0753 821.688 69.0771 821.695 69.0789M643.223 76.202C643.223 76.202 643.221 76.2014 643.219 76.2003C643.222 76.2015 643.223 76.202 643.223 76.202Z" stroke="#F4F4F5" stroke-width="1.5" stroke-miterlimit="10"/>
<path d="M1042.07 101.875L1042.07 101.874C1047.76 100.515 1052.93 99.0008 1055.95 97.3807C1057.43 96.582 1058.51 95.7019 1058.75 94.7074C1058.88 94.1869 1058.78 93.6005 1058.35 92.9766C1057.93 92.3657 1057.26 91.8187 1056.42 91.3308C1054.67 90.2971 1052.02 89.3859 1048.78 88.5544C1045.5 87.7134 1041.48 86.9245 1036.92 86.181C1027.81 84.6935 1016.44 83.3759 1004.28 82.1915C988.131 80.618 970.534 79.2757 954.907 78.0837C947.018 77.4818 939.63 76.9183 933.184 76.3827L933.183 76.3826C928.317 75.9841 923.282 75.5829 918.15 75.1741C887.759 72.7528 854.013 70.0642 832.321 66.0859L832.308 66.0837C827.296 65.2254 823.263 64.2711 819.698 63.2296L819.687 63.2266C816.322 62.2756 814.038 61.3047 812.193 60.3382C810.928 59.6757 809.892 59.0311 808.808 58.3563C808.265 58.0186 807.71 57.6734 807.109 57.3147C803.513 55.1705 799.12 53.1197 788.87 51.2864C778.345 49.3762 757.521 47.7989 733.673 47.044C709.808 46.2886 682.845 46.355 660.01 47.7479C659.775 47.7521 659.545 47.7721 659.314 47.7921C659.267 47.7962 659.22 47.8003 659.172 47.8043C658.876 47.8292 658.526 47.8543 658.043 47.8612L658.023 47.8615L658.003 47.8628C641.149 48.958 630.693 50.5596 622.776 52.1268C609.276 54.7062 598.919 57.6154 593.772 60.7303C592.481 61.5119 591.495 62.3194 590.871 63.156C590.25 63.9896 589.963 64.8878 590.153 65.8562C590.546 67.8525 592.82 69.6858 596.41 71.324C596.069 71.6017 595.32 71.9243 594.249 72.3229C591.441 73.2211 586.462 74.18 580.581 75.1693C576.938 75.7824 572.973 76.4034 568.992 77.0268C566.548 77.4094 564.099 77.793 561.715 78.1762C555.46 79.1815 549.655 80.1839 545.65 81.1528C543.655 81.6354 542.065 82.1192 541.089 82.6053C540.611 82.8437 540.217 83.1123 540.03 83.4294C539.933 83.5925 539.87 83.8031 539.928 84.0642C539.989 84.3418 540.175 84.6173 540.443 84.8602C541.847 86.1448 544.061 87.3107 546.689 88.393C549.352 89.4901 552.585 90.559 556.151 91.6076C562.056 93.3444 568.964 95.0519 575.841 96.7517C577.266 97.1038 578.689 97.4556 580.102 97.8072C588.366 99.8644 596.258 101.914 602.086 104.013C605.01 105.066 607.325 106.101 608.889 107.11C610.424 108.101 611.072 108.949 611.085 109.768L611.085 109.778L611.086 109.788C611.2 111.673 612.37 113.492 614.115 115.22C615.838 116.928 618.146 118.574 620.615 120.171C622.121 121.145 623.741 122.134 625.354 123.119C626.368 123.739 627.378 124.356 628.356 124.966C630.9 126.555 633.283 128.136 635.22 129.748C635.219 129.754 635.216 129.761 635.214 129.768C635.16 129.914 634.975 130.128 634.58 130.396C633.806 130.92 632.446 131.507 630.661 132.14C627.43 133.286 622.946 134.534 618.415 135.795C617.959 135.922 617.502 136.049 617.046 136.176C612.082 137.56 607.2 138.951 604.089 140.216C602.555 140.84 601.36 141.467 600.843 142.096C600.595 142.398 600.391 142.832 600.676 143.389C600.983 143.99 601.674 144.394 602.3 144.651L602.3 144.651L602.308 144.654C605.019 145.744 608.825 146.687 613.462 147.515C618.117 148.347 623.676 149.076 629.921 149.716C642.412 150.997 657.698 151.929 674.077 152.621C706.785 154.003 743.903 154.43 771.924 154.752L772.058 154.753C772.058 154.753 772.058 154.753 772.058 154.753C794.211 155.032 817.026 154.62 839.701 153.954L839.703 153.954C870.931 152.995 899.919 150.874 920.158 147.638C930.27 146.021 938.241 144.12 943.214 141.928C945.696 140.834 947.48 139.647 948.39 138.348C949.307 137.039 949.376 135.543 948.212 133.894C947.923 133.48 947.637 133.078 947.357 132.686C946.656 131.702 945.998 130.778 945.442 129.863C944.676 128.602 944.158 127.441 944.072 126.331C943.9 124.13 945.409 121.877 951.079 119.6C956.112 117.588 963.777 115.697 974.99 113.664L974.995 113.663C983.968 111.962 993.861 110.378 1003.65 108.811C1005.79 108.468 1007.92 108.127 1010.04 107.785C1021.84 105.88 1033.15 103.968 1042.07 101.875ZM596.724 71.4733C596.724 71.4733 596.722 71.4723 596.719 71.4704C596.722 71.4723 596.724 71.4732 596.724 71.4733Z" stroke="#F4F4F5" stroke-width="1.5" stroke-miterlimit="10"/>
<path d="M1082.54 103L1082.53 103.001C1069.42 105.873 1052.87 108.439 1036.11 111.037C1024.67 112.81 1013.14 114.597 1002.54 116.506L1002.54 116.507C989.431 118.822 980.415 121.074 974.493 123.356C967.747 126.035 965.664 128.687 965.687 131.325C965.711 133.94 967.781 136.711 970.256 140.024L970.386 140.197L1082.54 103ZM1082.54 103C1089.87 101.361 1096.42 99.5521 1100.36 97.6362C1102.31 96.6868 1103.72 95.6686 1104.2 94.5582C1104.44 93.9901 1104.46 93.3496 1104.11 92.6499C1103.75 91.9449 1103.07 91.2949 1102.17 90.71L1102.16 90.7034M1082.54 103L1102.16 90.7034M1102.16 90.7034L1102.15 90.697M1102.16 90.7034L1102.15 90.697M1102.15 90.697C1100.15 89.4491 1097.06 88.3479 1093.22 87.3431C1089.34 86.328 1084.57 85.3778 1079.14 84.4843C1068.26 82.6969 1054.66 81.1238 1040.08 79.7185C1020.25 77.8056 998.575 76.1995 979.528 74.7879C970.593 74.1258 962.237 73.5064 954.918 72.9184C947.898 72.3468 940.552 71.7751 933.044 71.1906C897.676 68.4378 858.7 65.404 833.164 60.7911C827.535 59.7672 822.398 58.6568 818.247 57.4557L818.232 57.4517M1102.15 90.697L818.232 57.4517M1002.08 115.851C988.953 118.17 979.891 120.43 973.92 122.73L1002.08 115.851ZM1002.08 115.851C1012.71 113.935 1024.26 112.146 1035.7 110.373C1052.43 107.779 1068.94 105.221 1082.04 102.35L1002.08 115.851ZM818.232 57.4517C814.134 56.319 811.371 55.1579 809.148 53.9975C807.617 53.1977 806.363 52.4132 805.056 51.5953C804.422 51.199 803.776 50.7948 803.08 50.3772C798.823 47.8244 793.575 45.3601 781.078 43.1335C768.603 40.9108 743.67 39.0514 715.084 38.162C686.483 37.2722 654.157 37.3515 626.862 39.0214C626.581 39.0264 626.194 39.0546 625.843 39.0798C625.462 39.1072 625.12 39.1315 624.895 39.1347L624.875 39.135M818.232 57.4517L624.875 39.135M624.875 39.135L624.855 39.1363M624.875 39.135L624.855 39.1363M624.855 39.1363C604.533 40.4517 592.178 42.3363 582.365 44.1855L582.365 44.1856M624.855 39.1363L582.365 44.1856M582.365 44.1856C566.521 47.1823 554.134 50.6102 547.871 54.2817C546.301 55.2023 545.094 56.1502 544.315 57.1275C543.539 58.101 543.159 59.1394 543.329 60.2491C543.504 61.3867 544.246 62.5308 545.529 63.6342C546.749 64.6835 548.439 65.6831 550.573 66.6459C550.542 66.6773 550.498 66.715 550.437 66.7584C549.956 67.1042 548.859 67.5069 547.045 67.9594L547.045 67.9593M582.365 44.1856L547.045 67.9593M547.045 67.9593L547.033 67.9625M547.045 67.9593L547.033 67.9625M547.033 67.9625C541.07 69.5804 528.483 71.3749 515.667 73.2021C512.196 73.6971 508.707 74.1945 505.329 74.6914C497.428 75.8535 490.139 77.0126 485.141 78.1295C482.65 78.686 480.686 79.2411 479.5 79.7949C478.919 80.0658 478.451 80.3689 478.241 80.7267C478.133 80.9114 478.068 81.155 478.163 81.4586C478.262 81.7789 478.511 82.0736 478.821 82.3144C480.64 83.7674 483.433 85.1073 486.782 86.3703C490.169 87.6474 494.255 88.8934 498.752 90.1175C506.103 92.118 514.634 94.081 523.126 96.0352C525.024 96.4718 526.919 96.908 528.799 97.3441C539.124 99.7388 548.967 102.127 556.218 104.577C559.854 105.806 562.748 107.022 564.704 108.218C565.676 108.812 566.363 109.369 566.801 109.885C567.222 110.382 567.444 110.875 567.442 111.397C567.343 113.64 568.584 115.814 570.612 117.897C572.613 119.952 575.389 121.928 578.411 123.85C580.451 125.146 582.659 126.452 584.862 127.754C585.919 128.379 586.974 129.002 588.008 129.624C591.213 131.55 594.259 133.476 596.768 135.453C596.765 135.474 596.758 135.506 596.739 135.548C596.65 135.749 596.382 136.02 595.865 136.344C594.847 136.98 593.095 137.69 590.82 138.452C586.666 139.842 580.91 141.361 575.103 142.893C574.568 143.034 574.034 143.175 573.5 143.316C567.181 144.986 560.962 146.662 556.939 148.18C554.946 148.933 553.409 149.675 552.698 150.399C552.36 150.743 552.082 151.205 552.309 151.795C552.572 152.477 553.335 152.956 554.062 153.262L554.075 153.267M547.033 67.9625L554.075 153.267M554.075 153.267L554.088 153.272M554.075 153.267L554.088 153.272M554.088 153.272C557.351 154.567 561.969 155.687 567.621 156.671C573.292 157.659 580.072 158.52 587.69 159.274C602.927 160.781 621.566 161.862 641.48 162.653C680.273 164.193 723.954 164.631 756.836 164.962L759.446 164.988C759.447 164.988 759.447 164.988 759.447 164.988C786.212 165.286 813.595 164.808 840.796 163.992L840.797 163.992M554.088 153.272L840.797 163.992M840.797 163.992C877.819 162.865 912.63 160.384 936.969 156.546M840.797 163.992L936.969 156.546M936.969 156.546C949.131 154.628 958.722 152.365 964.665 149.745M936.969 156.546L964.665 149.745M964.665 149.745C967.632 148.437 969.742 147.019 970.785 145.467M964.665 149.745L970.785 145.467M970.785 145.467C971.837 143.903 971.839 142.132 970.388 140.199L970.785 145.467Z" stroke="#F4F4F5" stroke-width="1.5" stroke-miterlimit="10"/>
<path d="M835.137 56.0472C866.413 61.5719 913.895 65.1828 956.323 68.4093C963.521 68.9567 970.574 69.493 977.377 70.0258C985.639 70.6806 995.096 71.3726 1005.23 72.1143C1059.88 76.1121 1134.27 81.5549 1147.48 90.421L835.137 56.0472ZM835.137 56.0472C828.39 54.8659 822.062 53.5082 817.258 52.1286L835.137 56.0472ZM1123 104.125L1123 104.125C1131.75 102.253 1139.81 100.168 1144.8 97.9426C1147.28 96.8374 1149.09 95.6609 1149.8 94.3942C1150.16 93.7525 1150.26 93.0333 1149.93 92.2418C1149.59 91.4344 1148.86 90.6749 1147.83 89.9836L1147.83 89.9823C1145.66 88.5252 1142.16 87.2409 1137.78 86.0693C1133.34 84.8853 1127.84 83.7771 1121.55 82.7355C1108.95 80.6517 1093.1 78.8205 1076.11 77.189C1052.76 74.9469 1027.21 73.0776 1004.95 71.4491C994.819 70.7077 985.367 70.0163 977.117 69.3623L977.116 69.3622C970.306 68.8289 963.248 68.2922 956.047 67.7445C913.613 64.5173 866.193 60.911 834.975 55.3963L834.973 55.396C828.244 54.2179 821.961 52.8684 817.216 51.5056L817.203 51.5021C812.359 50.1665 809.072 48.799 806.422 47.4325C804.589 46.4873 803.081 45.5566 801.523 44.5951C800.787 44.141 800.04 43.68 799.243 43.2073C794.274 40.263 788.197 37.428 773.75 34.8887C759.301 32.3108 730.258 30.1696 696.936 29.1458C663.599 28.1215 625.91 28.2138 594.135 30.1183C593.613 30.1263 593.23 30.1539 592.864 30.1801L592.86 30.1805C592.491 30.207 592.141 30.232 591.659 30.239L591.638 30.2393L591.618 30.2405C567.83 31.776 553.577 33.9434 541.867 36.0748L541.864 36.0755C523.447 39.535 509.017 43.4604 501.684 47.6569C499.847 48.7086 498.433 49.7891 497.515 50.9003C496.6 52.0074 496.147 53.1811 496.318 54.4287C496.493 55.7056 497.313 56.9927 498.759 58.2405C500.166 59.4552 502.145 60.6182 504.672 61.7436C504.608 61.803 504.516 61.8714 504.39 61.9473C503.679 62.3748 502.216 62.8499 500.17 63.3482L500.169 63.3486C492.693 65.1944 477.39 67.2471 461.872 69.3285C457.706 69.8873 453.525 70.4482 449.475 71.0077C439.93 72.3265 431.123 73.6374 425.033 74.8929C421.995 75.5191 419.595 76.1389 418.115 76.7503C417.388 77.0511 416.815 77.3759 416.529 77.7431C416.385 77.9285 416.276 78.1709 416.329 78.4791C416.387 78.819 416.627 79.153 416.972 79.4352L416.994 79.4534L417.017 79.4708C419.188 81.1042 422.538 82.6228 426.592 84.065C430.679 85.5192 435.612 86.9403 441.046 88.3388C449.747 90.578 459.805 92.7774 469.83 94.9699C472.324 95.5152 474.816 96.0602 477.285 96.6052C489.706 99.3477 501.522 102.089 510.145 104.908C514.47 106.322 517.895 107.725 520.172 109.11C521.304 109.799 522.09 110.445 522.575 111.047C523.042 111.627 523.27 112.216 523.206 112.847C522.895 115.457 524.248 117.994 526.592 120.431C528.902 122.833 532.175 125.141 535.746 127.384C538.048 128.829 540.535 130.284 543.014 131.734C544.371 132.528 545.726 133.32 547.047 134.109C550.817 136.36 554.351 138.606 557.149 140.9L557.149 140.9L557.159 140.908C557.159 140.909 557.16 140.909 557.161 140.91C557.163 140.935 557.161 140.996 557.112 141.093C556.983 141.349 556.625 141.674 555.98 142.055C554.708 142.804 552.546 143.636 549.767 144.526C544.747 146.133 537.843 147.889 530.875 149.661C530.142 149.847 529.409 150.034 528.677 150.22C521.003 152.176 513.478 154.136 508.634 155.908C506.234 156.787 504.405 157.649 503.581 158.482C503.189 158.878 502.882 159.404 503.179 160.068C503.51 160.806 504.379 161.311 505.222 161.641C508.98 163.143 514.372 164.442 521.015 165.582C527.682 166.726 535.681 167.72 544.685 168.588C562.692 170.323 584.765 171.554 608.311 172.447C652.229 174.113 701.32 174.601 738.801 174.974C741.513 175.001 744.163 175.027 746.747 175.054C778.123 175.371 810.582 174.82 841.845 173.946L841.847 173.946C884.663 172.65 925.297 169.809 953.8 165.368C968.043 163.149 979.301 160.524 986.285 157.476C989.772 155.953 992.246 154.304 993.471 152.504C994.705 150.691 994.706 148.653 993.042 146.434L993.036 146.424L993.028 146.415C989.988 142.534 987.498 139.272 987.517 136.216C987.536 133.172 990.064 130.148 997.912 127.11L997.913 127.109C1004.67 124.475 1015.04 121.863 1030.04 119.265L1030.05 119.265C1042.43 117.082 1056.07 115.052 1069.63 113.033C1088.83 110.174 1107.88 107.338 1123 104.125Z" stroke="#F4F4F5" stroke-width="1.5" stroke-miterlimit="10"/>
<path d="M1163.47 105.25L1163.47 105.25C1148.41 108.324 1130.38 111.077 1111.91 113.812C1109.68 114.143 1107.44 114.474 1105.19 114.806C1088.89 117.211 1072.49 119.632 1057.69 122.276L1057.68 122.277C1040.82 125.243 1029.06 128.13 1021.46 131.116L1021.46 131.119C1012.52 134.514 1009.54 137.91 1009.41 141.368C1009.29 144.831 1012.01 148.533 1015.31 152.916C1017.32 155.411 1017.43 157.723 1016.1 159.792C1014.78 161.847 1012 163.732 1008.05 165.472C1000.12 168.957 987.23 171.954 970.911 174.484C938.256 179.549 891.682 182.774 843.072 184.238C806.818 185.354 769.79 185.97 733.756 185.549C728.533 185.491 723.06 185.433 717.376 185.373C675.767 184.935 622.936 184.378 575.282 182.634C548.2 181.643 522.777 180.267 502.026 178.311C491.652 177.333 482.432 176.208 474.751 174.911C467.091 173.617 460.888 172.14 456.577 170.434C455.648 170.07 454.708 169.508 454.419 168.701C454.29 168.34 454.337 168.027 454.454 167.765C454.572 167.502 454.778 167.255 455.038 167.021C456.062 166.102 458.24 165.134 461.103 164.136C466.867 162.125 475.732 159.885 484.761 157.644C485.473 157.467 486.186 157.29 486.898 157.114C495.241 155.045 503.539 152.988 509.549 151.111C512.817 150.09 515.369 149.134 516.883 148.272C517.649 147.835 518.09 147.455 518.257 147.146C518.339 146.996 518.33 146.906 518.323 146.877C518.322 146.873 518.329 146.871 518.284 146.835L518.273 146.826L518.273 146.826C515.04 144.179 510.92 141.598 506.524 139.017C504.959 138.098 503.353 137.176 501.745 136.252C498.88 134.607 496.009 132.959 493.355 131.321C489.203 128.757 485.421 126.123 482.797 123.381C480.135 120.599 478.673 117.711 479.188 114.739C479.29 114.006 479.037 113.323 478.501 112.654C477.945 111.96 477.034 111.219 475.722 110.435C473.086 108.859 469.105 107.271 464.082 105.676C454.065 102.495 440.296 99.4083 425.811 96.3227C422.868 95.6959 419.896 95.0692 416.922 94.442C405.287 91.9882 393.615 89.5268 383.499 87.0179C377.147 85.4425 371.381 83.8418 366.602 82.2036C361.856 80.5769 357.957 78.8718 355.43 77.0481L355.422 77.0423L355.414 77.0364C355.035 76.7549 354.737 76.4044 354.643 76.0259C354.558 75.68 354.668 75.4071 354.824 75.1997C355.132 74.7899 355.78 74.4275 356.616 74.0911C358.317 73.4068 361.11 72.7138 364.664 72.0138C371.789 70.6106 382.132 69.1501 393.357 67.6794C397.987 67.0727 402.767 66.4643 407.534 65.8575C425.926 63.5164 444.144 61.1975 452.963 59.0828L452.97 59.0812L452.976 59.0797C455.507 58.5321 457.194 58.0104 457.999 57.5313C458.196 57.4143 458.32 57.3109 458.391 57.2256C458.403 57.2106 458.413 57.197 458.421 57.1849C458.397 57.1715 458.368 57.1564 458.334 57.1396C455.455 55.8542 453.221 54.5308 451.654 53.155C450.053 51.7499 449.171 50.3101 449.013 48.8875C448.858 47.4951 449.401 46.1786 450.472 44.9304C451.546 43.6779 453.182 42.458 455.3 41.2696C463.755 36.5259 480.227 32.1029 500.986 28.2264L500.988 28.226C514.087 25.8195 530.701 23.2777 557.484 21.6139C557.982 21.5636 558.488 21.5347 558.974 21.5068L558.982 21.5063C559.482 21.4778 559.962 21.4502 560.428 21.4026L560.443 21.401L560.459 21.4001C596.698 19.2176 639.747 19.0909 677.821 20.2392C715.871 21.3868 749.021 23.8095 765.445 26.7423M1163.47 105.25L765.61 27.3936M1163.47 105.25C1173.64 103.144 1183.07 100.763 1188.99 98.2277C1191.93 96.9671 1194.09 95.6347 1194.98 94.2202C1195.43 93.5073 1195.59 92.716 1195.27 91.8479C1194.95 90.9599 1194.16 90.1174 1193.03 89.3478M1163.47 105.25L1162.99 104.598M765.445 26.7423C765.447 26.7426 765.448 26.7428 765.45 26.7431L765.61 27.3936M765.445 26.7423C765.445 26.7422 765.445 26.7422 765.444 26.7421L765.61 27.3936M765.445 26.7423C782.119 29.6325 789.041 32.8599 794.665 36.202C795.565 36.7364 796.408 37.259 797.241 37.7744C799.013 38.8722 800.733 39.9376 802.827 41.0163C805.855 42.576 809.623 44.1336 815.199 45.6506C821.106 47.2575 827.991 48.7695 835.812 50.1004L835.816 50.101C871.3 56.2648 924.592 60.2994 972.413 63.9198C981.295 64.5922 989.988 65.2504 998.344 65.9053L998.345 65.9053C1008.1 66.6756 1019.34 67.4876 1031.4 68.359C1056.57 70.1778 1085.33 72.2554 1111.61 74.7521C1131.05 76.5989 1149.15 78.6774 1163.47 81.0548C1170.63 82.2432 1176.86 83.5099 1181.86 84.8664C1184.35 85.5447 1186.56 86.2502 1188.42 86.987C1190.27 87.7174 1191.84 88.499 1193.03 89.3478M765.61 27.3936C784.78 30.7164 790.819 34.4555 796.879 38.2079C801.297 40.9429 805.725 43.6851 815.258 46.2783C821.209 47.897 828.131 49.4166 835.981 50.7525C871.521 56.9259 924.876 60.965 972.692 64.5849C981.571 65.257 990.258 65.9147 998.605 66.5689C1008.37 67.3401 1019.62 68.1526 1031.68 69.0243C1094.09 73.5327 1178.42 79.6248 1192.66 89.7731M1193.03 89.3478C1193.03 89.3446 1193.02 89.3415 1193.02 89.3383L1192.66 89.7731M1193.03 89.3478C1193.04 89.351 1193.04 89.3541 1193.05 89.3573L1192.66 89.7731M1192.66 89.7731C1200.54 95.1132 1183.32 100.387 1162.99 104.598M1162.99 104.598C1146.13 108.039 1125.53 111.079 1104.75 114.147C1088.45 116.552 1072.04 118.975 1057.22 121.621L1162.99 104.598Z" stroke="#F4F4F5" stroke-width="1.5" stroke-miterlimit="10"/>
<path d="M757.355 19.3327C778.345 23.0406 785.091 27.2053 791.853 31.3808C796.876 34.4821 801.908 37.5894 812.795 40.5199C819.341 42.3005 827.322 43.8902 836.319 45.4652M757.355 19.3327L836.319 45.4652M757.355 19.3327C720.265 12.8779 609.072 8.508 527.185 13.3458L757.355 19.3327ZM836.319 45.4652L836.155 44.814C836.153 44.8138 836.152 44.8136 836.151 44.8133L836.319 45.4652ZM1044.37 134.879C1052.86 131.624 1065.96 128.376 1085.23 125.12L1085.23 125.12C1101.55 122.289 1119.4 119.688 1137.15 117.102C1140.07 116.677 1142.98 116.253 1145.88 115.828C1166.44 112.818 1186.5 109.78 1203.43 106.382L1044.37 134.879ZM1044.37 134.879C1044.37 134.879 1044.37 134.879 1044.37 134.878L1043.8 134.253L1044.37 134.879C1044.37 134.879 1044.37 134.879 1044.37 134.879ZM1037.5 159.24C1037.5 159.239 1037.5 159.237 1037.5 159.236C1037.5 159.234 1037.49 159.233 1037.49 159.231L1036.85 159.402L1037.5 159.24ZM843.659 194.283C843.659 194.283 843.659 194.283 843.659 194.283C843.659 194.283 843.66 194.283 843.66 194.283L843.302 193.617L843.659 194.283ZM435.042 116.372C435.041 116.373 435.041 116.374 435.041 116.375C435.041 116.375 435.041 116.375 435.041 116.376L435.858 116.728L435.042 116.372ZM293.765 74.4624C293.766 74.4628 293.767 74.4631 293.767 74.4635L294.123 74.0287L293.765 74.4624ZM405.717 54.7317C405.717 54.7318 405.716 54.7319 405.716 54.732C405.715 54.7322 405.715 54.7323 405.714 54.7324L406.211 55.3811L405.717 54.7317ZM412.203 52.4372C412.203 52.437 412.197 52.4716 412.145 52.5357C412.252 52.5873 412.297 52.619 412.306 52.6248C412.307 52.626 412.307 52.6261 412.306 52.6249C412.251 52.5768 412.203 52.4921 412.203 52.4389C412.203 52.4378 412.203 52.4373 412.203 52.4372ZM523.843 12.8938C523.839 12.8941 523.834 12.8944 523.829 12.8947C523.824 12.8952 523.819 12.8957 523.814 12.8962L524.226 13.5586L523.843 12.8938Z" stroke="#F4F4F5" stroke-width="1.5" stroke-miterlimit="10"/>
<path d="M494.147 3.94783L494.163 3.94687C539.343 1.25283 592.865 1.10376 640.221 2.52368C687.557 3.943 728.799 6.93172 749.398 10.5284C770.023 14.1295 778.502 18.1451 785.428 22.2774C786.47 22.8991 787.458 23.511 788.436 24.1165C790.704 25.5211 792.916 26.8909 795.615 28.2674C799.431 30.2142 804.192 32.1515 811.232 34.0311C818.844 35.957 827.432 37.7863 837.502 39.511C881.87 47.0382 948.004 51.9458 1007.08 56.3296C1018.83 57.2015 1030.3 58.0527 1041.27 58.8996C1052.82 59.7899 1066.11 60.7316 1080.4 61.7439C1112.2 63.9965 1148.94 66.5989 1182.42 69.7642C1206.69 72.0582 1229.28 74.6502 1247.08 77.6236C1255.97 79.11 1263.69 80.6957 1269.83 82.3942C1272.91 83.2435 1275.6 84.1264 1277.87 85.0476C1280.12 85.9631 1282 86.9396 1283.4 87.9955C1284.7 88.9566 1285.52 89.9838 1285.79 91.0345C1286.05 92.0546 1285.76 92.9966 1285.12 93.8649C1283.84 95.5964 1280.99 97.2482 1277.13 98.8206C1269.36 101.977 1257.15 104.929 1243.9 107.506C1243.9 107.506 1243.9 107.506 1243.9 107.506L1243.43 106.853L494.147 3.94783ZM494.147 3.94783L494.131 3.94945M494.147 3.94783L494.131 3.94945M494.131 3.94945C493.67 3.99653 493.069 4.02589 492.439 4.05646L492.425 4.05716C491.818 4.08655 491.184 4.11729 490.68 4.16802C456.965 6.27191 436.046 9.3864 419.654 12.3514L419.652 12.3517M494.131 3.94945L419.652 12.3517M419.652 12.3517C393.724 17.1119 373.175 22.5515 362.596 28.379C359.947 29.8383 357.902 31.333 356.554 32.8633C355.21 34.389 354.527 35.9861 354.691 37.6618C354.858 39.3687 355.898 41.0972 357.824 42.7925C359.72 44.4611 362.447 46.077 365.999 47.6543L366.006 47.6576M419.652 12.3517L366.006 47.6576M366.006 47.6576C366.124 47.7093 366.205 47.7516 366.258 47.7823C366.24 47.8175 366.207 47.8669 366.146 47.9289C366.029 48.0489 365.839 48.1857 365.56 48.3357C364.429 48.9439 362.163 49.6032 358.937 50.2885L358.934 50.2891M366.006 47.6576L358.934 50.2891M358.934 50.2891C347.175 52.8371 323.704 55.6341 300.077 58.4498C293.747 59.2041 287.406 59.9597 281.276 60.7123C266.79 62.4907 253.487 64.2517 244.343 65.9349C239.778 66.7751 236.212 67.6025 234.052 68.4136C232.989 68.8129 232.185 69.2362 231.811 69.7065C231.623 69.9432 231.491 70.2551 231.604 70.6513C231.728 71.0846 232.099 71.4683 232.537 71.7643L232.537 71.7643M358.934 50.2891L232.537 71.7643M232.537 71.7643L232.545 71.77M232.537 71.7643L232.545 71.77M232.545 71.77C235.838 73.9615 240.884 76.0316 247.061 78.0213C253.269 80.0214 260.738 81.9771 268.957 83.9034C281.814 86.9169 296.568 89.8726 311.28 92.8198C315.373 93.6397 319.462 94.4589 323.506 95.2786C342.117 99.0504 359.76 102.828 372.498 106.727C378.884 108.681 383.932 110.636 387.236 112.586C388.881 113.556 390.015 114.48 390.687 115.353C391.338 116.2 391.613 117.073 391.4 118.013C390.492 121.729 392.143 125.33 395.393 128.808C398.596 132.236 403.331 135.525 408.581 138.728C412.015 140.823 415.739 142.922 419.458 145.018C421.42 146.123 423.38 147.228 425.295 148.331C430.885 151.55 436.133 154.774 440.22 158.089L440.228 158.095M232.545 71.77L440.228 158.095M440.228 158.095C440.319 158.168 440.337 158.206 440.348 158.251M440.228 158.095L440.348 158.251M440.348 158.251C440.364 158.323 440.361 158.462 440.24 158.665M440.348 158.251L440.24 158.665M440.24 158.665C439.995 159.075 439.386 159.562 438.378 160.109M440.24 158.665L438.378 160.109M438.378 160.109C436.38 161.192 433.046 162.391 428.804 163.668M438.378 160.109L428.804 163.668M428.804 163.668C420.999 166.018 410.248 168.597 399.437 171.191M428.804 163.668L399.437 171.191M399.437 171.191C398.512 171.413 397.587 171.635 396.663 171.857M399.437 171.191L396.663 171.857M396.663 171.857C384.955 174.669 373.462 177.479 365.94 179.998M396.663 171.857L365.94 179.998M365.94 179.998C362.197 181.252 359.363 182.458 357.999 183.588M365.94 179.998L357.999 183.588M357.999 183.588C357.654 183.874 357.384 184.171 357.22 184.48M357.999 183.588L357.22 184.48M357.22 184.48C357.059 184.787 356.982 185.143 357.101 185.549M357.22 184.48L357.101 185.549M357.101 185.549C357.369 186.468 358.43 187.137 359.569 187.586L357.101 185.549Z" stroke="#F4F4F5" stroke-width="1.5" stroke-miterlimit="10"/>
<path d="M810.232 28.6283C818.011 30.8172 827.734 32.8079 838.936 34.6921C887.74 43.0432 961.127 48.419 1026.2 53.1858C1038.93 54.1179 1051.33 55.0268 1063.18 55.93L810.232 28.6283ZM810.232 28.6283C796.823 25.074 790.661 21.2915 784.502 17.5108C776.233 12.4356 767.97 7.36352 742.191 2.85035C697.208 -5.02491 561.035 -10.2294 461.772 -4.37564M810.232 28.6283L461.772 -4.37564M461.772 -4.37564C461.032 -4.32242 460.409 -4.29219 459.785 -4.26194C459.161 -4.2317 458.537 -4.20147 457.798 -4.14827M461.772 -4.37564L380.082 4.80465M457.798 -4.14827C420.64 -1.82624 397.845 1.56788 380.082 4.80465M457.798 -4.14827L457.415 -4.81312C457.413 -4.81303 457.412 -4.81296 457.411 -4.81287M457.798 -4.14827L457.407 -4.81263C457.409 -4.81272 457.41 -4.81279 457.411 -4.81287M380.082 4.80465C323.547 15.1579 290.039 28.5039 320.601 42.1241M380.082 4.80465L320.601 42.1241M457.411 -4.81287C420.224 -2.48889 397.402 0.908755 379.615 4.14986L379.615 4.14997C351.345 9.32707 328.753 15.2645 317.051 21.6398C314.122 23.236 311.854 24.8705 310.35 26.5428C308.851 28.2105 308.078 29.9515 308.228 31.7731C308.38 33.6262 309.482 35.5062 311.563 37.3568C313.608 39.1761 316.569 40.9435 320.445 42.6728M457.411 -4.81287C458.158 -4.86656 458.788 -4.8971 459.409 -4.92723L459.413 -4.92741C460.037 -4.95766 460.652 -4.98752 461.382 -5.04L461.392 -5.04072C511.053 -7.96931 569.938 -8.13141 622.03 -6.57706C674.102 -5.02331 719.454 -1.75273 742.027 2.19915C764.626 6.15561 773.945 10.5637 781.583 15.0879C782.712 15.7569 783.788 16.4169 784.853 17.0708C787.384 18.6247 789.859 20.1439 792.872 21.6665C797.11 23.8086 802.387 25.9369 810.165 27.9986L810.174 28.001L810.183 28.0035C817.901 30.1752 827.577 32.1579 838.765 34.0397L838.768 34.0402C887.516 42.3818 960.838 47.753 1025.92 52.5203C1038.65 53.4528 1051.06 54.3623 1062.91 55.2663L1062.91 55.2664C1075.86 56.2711 1090.85 57.335 1106.99 58.4811C1141.67 60.9426 1181.69 63.7828 1218.19 67.2278C1244.95 69.7524 1269.85 72.6042 1289.41 75.8745C1299.18 77.5093 1307.65 79.2528 1314.37 81.1196C1317.72 82.053 1320.66 83.023 1323.11 84.0345C1325.56 85.0415 1327.58 86.1151 1329.07 87.2746L1329.07 87.2775C1330.43 88.3478 1331.25 89.473 1331.47 90.6051C1331.69 91.7043 1331.33 92.7266 1330.58 93.6785C1329.1 95.5783 1325.91 97.3931 1321.58 99.1216C1312.89 102.589 1299.29 105.817 1284.37 108.63M320.445 42.6728L845.578 213.863C978.048 209.918 1102.07 196.553 1081.78 172.135L1082.42 171.95C1082.42 171.95 1082.42 171.949 1082.42 171.948C1077.63 166.14 1074.1 161.108 1074.58 156.417C1075.07 151.7 1079.64 147.145 1091.84 142.636L1091.85 142.634C1102.06 138.757 1117.91 134.873 1140.89 130.882L1140.89 130.882C1161.47 127.276 1184.37 124.011 1207.22 120.752C1209.35 120.449 1211.48 120.145 1213.61 119.842C1238.55 116.279 1263.18 112.686 1284.37 108.63M320.445 42.6728C320.453 42.6762 320.461 42.6796 320.468 42.683L320.601 42.1241M320.445 42.6728C320.439 42.6697 320.433 42.6667 320.427 42.6636L320.601 42.1241M1284.37 108.63C1284.37 108.63 1284.37 108.63 1284.37 108.63L1283.9 107.976L1284.37 108.63Z" stroke="#F4F4F5" stroke-width="1.5" stroke-miterlimit="10"/>
<path d="M808.173 22.1502L808.166 22.1484C799.645 19.8843 793.88 17.5554 789.26 15.2154C785.996 13.5623 783.317 11.9148 780.584 10.2339C779.412 9.51315 778.23 8.78625 776.988 8.05013C768.7 3.13938 758.549 -1.63948 733.725 -5.94684C709.202 -10.2113 659.741 -13.7637 602.933 -15.4519C546.104 -17.1407 481.856 -16.9657 427.735 -13.7601L427.725 -13.7594C426.242 -13.6527 424.785 -13.5481 423.29 -13.5267L423.27 -13.5264L423.251 -13.5252C382.595 -10.9811 357.872 -7.30051 338.187 -3.7768L338.186 -3.77653C307.32 1.82121 282.684 8.25645 269.923 15.1794C266.729 16.9125 264.257 18.687 262.618 20.5019C260.984 22.3123 260.145 24.1985 260.302 26.1675C260.462 28.168 261.648 30.1979 263.893 32.2004C266.107 34.1752 269.323 36.0997 273.547 37.9873L273.557 37.9921L273.568 37.9967C273.834 38.1103 273.97 38.195 274.029 38.2383C274.017 38.2921 273.969 38.3944 273.815 38.5351C273.644 38.6911 273.378 38.8633 273.004 39.0478C271.492 39.7933 268.527 40.592 264.351 41.4187L264.346 41.4197C249.82 44.4052 220.965 47.6901 191.922 50.9964C184.063 51.8911 176.19 52.7873 168.583 53.6796C150.743 55.7724 134.373 57.8434 123.128 59.8201C117.513 60.807 113.138 61.7766 110.497 62.7236C109.194 63.1906 108.229 63.6797 107.785 64.2148C107.562 64.4829 107.411 64.8325 107.547 65.2742C107.695 65.7555 108.126 66.1723 108.622 66.4899L108.629 66.4941C112.69 69.0592 118.887 71.497 126.495 73.8505C134.133 76.2134 143.307 78.5246 153.393 80.8019C168.993 84.3245 186.834 87.7788 204.626 91.2236C209.834 92.232 215.039 93.2397 220.181 94.248C242.919 98.7061 264.435 103.174 279.893 107.791C287.641 110.105 293.759 112.425 297.73 114.749C299.71 115.907 301.07 117.016 301.86 118.073C302.629 119.101 302.923 120.167 302.595 121.312C301.288 125.753 303.127 130.053 306.957 134.217C310.735 138.325 316.421 142.269 322.772 146.117C326.983 148.668 331.559 151.219 336.132 153.768C338.452 155.061 340.77 156.354 343.04 157.646C349.82 161.505 356.197 165.376 361.137 169.355C361.25 169.451 361.293 169.524 361.308 169.618C361.329 169.744 361.299 169.938 361.126 170.195C360.778 170.711 359.978 171.306 358.709 171.964C356.191 173.269 352.051 174.71 346.819 176.243C337.199 179.063 324.01 182.161 310.745 185.277C309.594 185.547 308.443 185.818 307.293 186.088C292.907 189.472 278.785 192.851 269.474 195.881C264.835 197.39 261.32 198.834 259.583 200.177C259.144 200.515 258.801 200.861 258.582 201.216C258.367 201.567 258.251 201.964 258.342 202.407C258.439 202.878 258.759 203.344 259.265 203.762C259.743 204.156 260.352 204.481 261.03 204.757L261.038 204.76C267.377 207.292 276.688 209.485 288.31 211.402C299.955 213.322 313.997 214.977 329.836 216.408C361.514 219.27 400.43 221.24 441.815 222.633C510.799 224.955 586.684 225.677 647.41 226.254C659.546 226.369 671.077 226.479 681.826 226.595L681.826 226.595C736.861 227.169 792.166 226.291 846.058 224.666C918.1 222.525 988.081 217.836 1037.31 210.329C1061.92 206.577 1081.38 202.115 1093.33 196.896C1099.3 194.29 1103.45 191.47 1105.39 188.41C1107.35 185.33 1107.1 181.938 1104.11 178.292C1099.05 171.975 1095.3 166.518 1095.83 161.416C1096.36 156.291 1101.25 151.348 1114.25 146.402L1114.25 146.402C1125.3 142.173 1142.54 138.014 1167.42 133.74C1189.78 129.941 1214.38 126.487 1238.93 123.04C1241.73 122.647 1244.52 122.255 1247.31 121.861C1274.61 118.02 1301.51 114.139 1324.84 109.754C1341.17 106.707 1356.28 103.182 1366.02 99.402C1370.88 97.5172 1374.48 95.544 1376.19 93.4913C1377.05 92.4642 1377.48 91.3666 1377.29 90.1911C1377.09 88.9779 1376.23 87.7691 1374.76 86.6195C1373.16 85.3654 1370.97 84.2005 1368.32 83.1051C1365.66 82.0046 1362.46 80.9482 1358.81 79.9311C1351.51 77.8967 1342.29 75.9959 1331.64 74.2133C1310.32 70.6472 1283.18 67.5373 1254.01 64.7864C1213.63 60.9789 1169.31 57.8546 1131.11 55.1618C1114.12 53.9639 1098.33 52.8513 1084.65 51.8021C1071.23 50.7756 1057.14 49.7442 1042.69 48.6858C972.221 43.5265 893.013 37.7271 839.615 28.7459C827.826 26.7012 817.043 24.5632 808.173 22.1502Z" stroke="#F4F4F5" stroke-width="1.5" stroke-miterlimit="10"/>
<path d="M1422.6 89.7402C1422.4 88.439 1421.49 87.1389 1419.91 85.8954C1418.22 84.5372 1415.89 83.2741 1413.06 82.0855C1410.21 80.8906 1406.78 79.7437 1402.85 78.6395C1394.99 76.4309 1385.03 74.3687 1373.52 72.436C1350.49 68.5696 1321.1 65.2043 1289.51 62.2325C1245.78 58.1183 1197.78 54.7536 1156.48 51.8594C1138.12 50.5725 1121.08 49.3787 1106.34 48.2533L1106.6 48.917L1106.34 48.2532C1092.04 47.1707 1077.02 46.082 1061.6 44.964C985.122 39.4201 898.708 33.156 840.919 23.3586C828.038 21.1611 816.653 18.8604 806.669 16.2893C797.416 13.8442 791.136 11.3204 786.093 8.77999C782.517 6.97837 779.576 5.1791 776.581 3.34693C775.317 2.57347 774.043 1.79414 772.708 1.00629C763.702 -4.30806 752.71 -9.47965 725.932 -14.1C699.182 -18.7156 645.74 -22.5519 584.322 -24.3763C522.884 -26.2014 453.4 -26.0151 394.543 -22.5713L394.533 -22.5706C393.049 -22.4639 391.593 -22.3593 390.097 -22.3379L390.077 -22.3376L390.058 -22.3363C346.444 -19.5795 319.314 -15.6089 297.772 -11.7174L297.771 -11.7172C264.586 -5.66027 237.906 1.27279 224.018 8.73293C220.542 10.6003 217.846 12.5113 216.049 14.465C214.257 16.414 213.327 18.441 213.469 20.5532C213.613 22.6972 214.86 24.8756 217.259 27.0304C219.623 29.1552 223.076 31.2314 227.63 33.2726C227.935 33.4156 228.06 33.5126 228.098 33.5477C228.098 33.553 228.098 33.56 228.096 33.5689C228.084 33.6438 228.016 33.7771 227.805 33.9543C227.601 34.126 227.294 34.3116 226.877 34.5083C225.192 35.3025 221.99 36.1473 217.601 37.063C201.582 40.2704 170.073 43.8068 138.399 47.3617C129.817 48.3249 121.222 49.2896 112.92 50.2494C93.4664 52.4984 75.6242 54.721 63.3563 56.8359C57.2301 57.8921 52.4573 58.9273 49.5676 59.9351C48.1407 60.4328 47.0905 60.9502 46.6015 61.5101C46.3576 61.7895 46.189 62.1508 46.3204 62.6073C46.4646 63.1084 46.9132 63.5441 47.4363 63.8763L47.4363 63.8763L47.4452 63.8819C51.8634 66.6429 58.6219 69.2702 66.9359 71.8086C75.2809 74.3564 85.3068 76.8476 96.3307 79.3017C113.342 83.0888 132.788 86.8002 152.18 90.5011C157.917 91.5961 163.65 92.6902 169.313 93.7851C194.145 98.5859 217.629 103.399 234.457 108.377C242.891 110.872 249.541 113.377 253.837 115.89C255.978 117.142 257.445 118.345 258.285 119.495C259.105 120.617 259.399 121.784 258.998 123.036L258.998 123.039C257.492 127.844 259.445 132.496 263.582 137.004C267.665 141.454 273.843 145.73 280.745 149.904C285.216 152.608 290.066 155.313 294.911 158.015C297.539 159.481 300.167 160.946 302.731 162.41C310.067 166.597 316.931 170.796 322.17 175.108C322.312 175.227 322.369 175.321 322.388 175.438C322.411 175.586 322.373 175.804 322.18 176.086C321.793 176.652 320.91 177.301 319.521 178.014C316.763 179.431 312.235 180.996 306.519 182.661C295.996 185.727 281.568 189.098 267.067 192.486C265.83 192.775 264.592 193.064 263.356 193.353C247.65 197.027 232.238 200.694 222.081 203.974C217.02 205.608 213.194 207.168 211.307 208.613C210.832 208.977 210.461 209.348 210.226 209.727C209.994 210.102 209.871 210.523 209.972 210.991C210.078 211.489 210.422 211.977 210.96 212.413C211.47 212.826 212.122 213.168 212.856 213.46L212.857 213.461C219.75 216.198 229.871 218.567 242.508 220.638C255.168 222.712 270.43 224.497 287.641 226.039C322.063 229.123 364.329 231.236 409.248 232.728C482.361 235.156 562.542 235.937 627.431 236.57C642.277 236.714 656.323 236.851 669.3 236.998C728.993 237.676 788.823 236.648 847.747 234.866C925.583 232.557 1001.51 227.506 1054.91 219.396C1081.59 215.343 1102.7 210.519 1115.59 204.872C1122.03 202.052 1126.48 199.001 1128.52 195.691C1130.58 192.358 1130.22 188.696 1126.89 184.77C1121.33 177.964 1117.34 172.066 1118.04 166.559C1118.75 161.022 1124.21 155.707 1138.31 150.404C1150.71 145.813 1168.83 141.385 1195.57 136.744C1220.31 132.493 1247.55 128.661 1274.74 124.837C1276.96 124.523 1279.19 124.21 1281.42 123.897C1310.8 119.759 1339.86 115.591 1365.31 110.878C1383.06 107.598 1399.56 103.797 1410.22 99.7061C1415.55 97.6656 1419.49 95.5282 1421.38 93.3035C1422.32 92.1905 1422.8 91.0054 1422.6 89.7402Z" stroke="#F4F4F5" stroke-width="1.5" stroke-miterlimit="10"/>
<path d="M1465.61 85.2471L1465.61 85.2505C1467.24 86.5801 1468.14 87.9611 1468.3 89.3335C1468.45 90.6676 1467.9 91.9254 1466.85 93.1147C1464.74 95.4932 1460.46 97.7889 1454.67 99.9853C1443.08 104.387 1425.2 108.485 1405.78 112.002C1378.19 117.044 1346.85 121.499 1315.27 125.946L1311.43 126.487C1281.11 130.754 1250.69 135.034 1223.26 139.84L1223.25 139.841C1194.11 144.771 1174.68 149.643 1161.39 154.504C1146.2 160.164 1140.29 165.848 1139.54 171.789C1138.8 177.698 1143.13 184.037 1149.21 191.349C1152.75 195.553 1153.11 199.475 1150.87 203.049C1148.64 206.602 1143.82 209.879 1136.86 212.912C1122.93 218.983 1100.16 224.172 1071.39 228.532C1013.84 237.255 932.096 242.688 848.465 245.165L848.465 245.165C784.973 247.013 720.573 248.107 656.268 247.409C642.718 247.265 628.077 247.131 612.609 246.99C542.381 246.348 455.117 245.549 375.594 242.945C327.076 241.356 281.425 239.094 244.273 235.783C225.697 234.128 209.233 232.209 195.591 229.979C181.971 227.752 171.085 225.203 163.701 222.259L163.695 222.257C162.918 221.943 162.231 221.577 161.702 221.136C161.142 220.67 160.8 220.155 160.707 219.637C160.62 219.149 160.761 218.707 161.022 218.309C161.285 217.906 161.694 217.51 162.218 217.119C164.298 215.567 168.474 213.888 173.993 212.126C185.064 208.591 201.815 204.639 218.875 200.679C220.187 200.375 221.499 200.07 222.812 199.766C238.593 196.107 254.296 192.467 265.743 189.159C271.948 187.366 276.867 185.68 279.868 184.153C281.377 183.385 282.345 182.684 282.771 182.068C282.984 181.761 283.03 181.52 283.004 181.35C282.982 181.212 282.912 181.097 282.744 180.958C277.078 176.311 269.637 171.797 261.685 167.298C258.903 165.725 256.053 164.15 253.202 162.575C247.952 159.674 242.697 156.771 237.854 153.866C230.375 149.381 223.694 144.786 219.299 139.998C214.849 135.149 212.78 130.141 214.472 124.951L214.472 124.951C214.915 123.596 214.602 122.329 213.711 121.11C212.799 119.863 211.207 118.563 208.892 117.214C204.247 114.508 197.056 111.815 187.944 109.136C169.759 103.79 144.366 98.6236 117.499 93.474C111.213 92.2692 104.848 91.0655 98.4782 89.8609C77.649 85.922 56.7697 81.9736 38.4651 77.9474C26.5119 75.3183 15.6327 72.651 6.56299 69.9246C-2.47681 67.2072 -9.82782 64.4 -14.6576 61.4583L-14.6624 61.4554L-14.6624 61.4554C-15.2174 61.1144 -15.7026 60.6667 -15.874 60.1428C-16.0324 59.6589 -15.8656 59.2724 -15.611 58.9722C-15.102 58.3719 -13.9807 57.8164 -12.4448 57.2815C-9.3347 56.1983 -4.17135 55.0865 2.4702 53.9531C15.769 51.6836 35.1441 49.3034 56.2746 46.8971C65.3664 45.8618 74.7825 44.8217 84.1819 43.7834C118.51 39.9914 152.615 36.2241 169.889 32.8044C174.761 31.8398 178.181 30.9279 179.957 30.0707C180.397 29.8583 180.719 29.6573 180.933 29.4708C181.153 29.2795 181.228 29.1309 181.243 29.0388C181.253 28.9724 181.232 28.9658 181.232 28.965C181.2 28.9301 181.077 28.8213 180.744 28.6579C175.871 26.4848 172.183 24.274 169.662 22.0128C167.104 19.7192 165.779 17.4007 165.631 15.1166C165.485 12.8648 166.485 10.698 168.414 8.60982C170.347 6.51686 173.247 4.46724 176.988 2.463C191.936 -5.54478 220.649 -12.9968 256.431 -19.4745M1465.61 85.2471L356.365 -30.2144L355.983 -30.8793C355.982 -30.8793 355.981 -30.8792 355.98 -30.8792C308.858 -27.9868 279.829 -23.7334 256.431 -19.4745M1465.61 85.2471C1463.81 83.792 1461.31 82.4351 1458.26 81.156M1465.61 85.2471L1458.26 81.156M256.431 -19.4745L256.897 -18.8196L256.43 -19.4744C256.43 -19.4744 256.43 -19.4745 256.431 -19.4745ZM1458.26 81.156C1455.2 79.872 1451.52 78.6388 1447.3 77.4508M1458.26 81.156L1447.3 77.4508M1447.3 77.4508C1438.85 75.0748 1428.14 72.8553 1415.75 70.7747M1447.3 77.4508L1415.75 70.7747M1415.75 70.7747C1390.97 66.6126 1359.34 62.9892 1325.33 59.7911M1415.75 70.7747L1325.33 59.7911M1325.33 59.7911C1277.72 55.3137 1225.39 51.6652 1180.58 48.5407M1325.33 59.7911L1180.58 48.5407M1180.58 48.5407C1161.38 47.2019 1143.56 45.9593 1128.08 44.789M1180.58 48.5407L1128.08 44.789M1128.08 44.789C1112.1 43.5758 1095.28 42.3568 1078 41.1044M1128.08 44.789L1078 41.1044M1078 41.1044C996.222 35.1767 904.108 28.5 841.805 18.1479L1078 41.1044ZM804.711 10.5229L804.785 11.1546L804.716 10.5242C804.714 10.5238 804.713 10.5233 804.711 10.5229Z" stroke="#F4F4F5" stroke-width="1.5" stroke-miterlimit="10"/>
<path d="M842.779 13.4215L842.605 12.7687C909.872 23.9552 1009.2 31.1076 1097.03 37.4319C1115.05 38.7295 1132.59 39.9921 1149.26 41.2476C1165.68 42.4787 1184.57 43.7855 1204.92 45.1935C1253.11 48.5284 1309.51 52.4308 1360.77 57.2382C1397.23 60.6568 1431.11 64.5354 1457.62 68.9976C1470.88 71.2282 1482.32 73.6091 1491.33 76.1592C1495.83 77.4342 1499.75 78.7578 1503 80.136C1506.23 81.5075 1508.87 82.9614 1510.75 84.519C1512.49 85.9431 1513.45 87.4171 1513.61 88.88C1513.77 90.3046 1513.17 91.6506 1512.03 92.9261C1509.75 95.4771 1505.12 97.9372 1498.87 100.289C1486.35 105.003 1467.08 109.376 1446.25 113.126C1416.53 118.497 1382.9 123.219 1348.95 127.913C1346.72 128.221 1344.49 128.53 1342.26 128.838C1310.51 133.223 1278.69 137.617 1249.7 142.529C1218.7 147.827 1197.88 152.975 1183.75 158.188C1167.49 164.247 1161.02 170.345 1160.11 176.719C1159.21 183.057 1163.78 189.84 1170.34 197.603C1174.16 202.099 1174.59 206.296 1172.23 210.129C1169.89 213.939 1164.77 217.454 1157.35 220.707C1142.49 227.218 1118.15 232.775 1087.37 237.441C1025.79 246.775 938.223 252.569 848.544 255.218L848.187 254.552L848.544 255.218C781.033 257.208 711.558 258.375 642.64 257.659L642.317 256.992L642.64 257.659C627.828 257.501 611.779 257.356 594.799 257.202C519.822 256.523 426.69 255.679 341.751 252.92C289.663 251.227 240.641 248.814 200.766 245.275C180.829 243.505 163.165 241.453 148.541 239.066C133.94 236.683 122.289 233.954 114.414 230.804C113.578 230.47 112.848 230.084 112.287 229.622C111.695 229.135 111.332 228.596 111.231 228.051C111.137 227.537 111.286 227.069 111.564 226.645C111.845 226.217 112.284 225.794 112.848 225.376C115.088 223.716 119.594 221.917 125.558 220.027C137.52 216.237 155.626 212 174.073 207.754C175.525 207.42 176.979 207.085 178.432 206.751C195.461 202.837 212.401 198.943 224.763 195.404C231.478 193.483 236.806 191.675 240.061 190.038C241.699 189.215 242.755 188.461 243.225 187.796C243.46 187.464 243.515 187.199 243.486 187.006C243.462 186.847 243.379 186.713 243.187 186.554C237.092 181.572 229.097 176.729 220.568 171.904C217.65 170.254 214.665 168.603 211.678 166.951C205.984 163.801 200.285 160.65 195.039 157.493C187.039 152.679 179.914 147.752 175.254 142.62C170.54 137.428 168.391 132.07 170.278 126.519C170.767 125.068 170.437 123.707 169.478 122.397C168.498 121.058 166.784 119.666 164.296 118.225C159.307 115.336 151.58 112.465 141.794 109.611C122.262 103.915 94.9678 98.4111 66.0726 92.9231C59.2798 91.633 52.3994 90.3439 45.5131 89.0537C23.1346 84.8609 0.693511 80.6564 -19.007 76.3665C-31.8901 73.561 -43.6248 70.7141 -53.4224 67.8034C-63.1912 64.9012 -71.1398 61.9057 -76.3874 58.7717L-76.401 58.7635L-76.401 58.7635C-76.9817 58.408 -77.4834 57.942 -77.6511 57.3994C-77.8051 56.9014 -77.6218 56.5033 -77.3459 56.1915C-76.792 55.5658 -75.5857 54.9818 -73.9256 54.4162C-70.5676 53.272 -65.0057 52.0945 -57.8526 50.8919C-43.5309 48.4841 -22.6843 45.9523 0.0596609 43.3898C9.84573 42.2872 19.9823 41.179 30.104 40.0723C67.0661 36.0312 103.829 32.0119 122.594 28.37C127.697 27.3597 131.468 26.3785 133.468 25.4517C133.964 25.2216 134.334 25.0027 134.584 24.798C134.842 24.5874 134.935 24.4219 134.954 24.3169C134.959 24.2936 134.958 24.2767 134.957 24.2663C134.957 24.2611 134.956 24.2574 134.956 24.2551C134.955 24.2543 134.955 24.2536 134.955 24.253C134.954 24.2513 134.951 24.2482 134.946 24.2434C134.904 24.1999 134.743 24.0705 134.319 23.8852L134.309 23.8807C129.089 21.5493 125.147 19.1815 122.456 16.7651C119.734 14.3199 118.325 11.8516 118.169 9.42007C118.014 7.02067 119.081 4.70846 121.145 2.47755C123.214 0.241856 126.317 -1.9478 130.323 -4.08894C146.331 -12.6443 177.087 -20.5942 215.464 -27.4924M842.779 13.4215L709.5 -29.7395C648.309 -40.2793 463.147 -47.2523 327.61 -39.3448L327.231 -40.0099C327.231 -40.0099 327.231 -40.0098 327.23 -40.0098C326.234 -39.9528 325.366 -39.8977 324.5 -39.8427L324.496 -39.8424C323.63 -39.7875 322.767 -39.7326 321.778 -39.676L321.775 -39.6759C271.185 -36.5634 240.255 -32.0271 215.464 -27.4924M842.779 13.4215L842.605 12.7687C827.524 10.2629 814.395 7.56101 802.664 4.58725L842.779 13.4215ZM215.464 -27.4924C215.464 -27.4925 215.465 -27.4925 215.465 -27.4926L215.93 -26.8376L215.463 -27.4923C215.463 -27.4923 215.464 -27.4924 215.464 -27.4924Z" stroke="#F4F4F5" stroke-width="1.5" stroke-miterlimit="10"/>
<path d="M1556.45 83.8699L1556.46 83.878C1558.24 85.3844 1559.18 86.9347 1559.3 88.4658C1559.42 89.9589 1558.75 91.3758 1557.5 92.7249C1555 95.4237 1550.02 98.0344 1543.3 100.537C1529.85 105.551 1509.2 110.22 1486.73 114.25L1486.26 113.595L1486.73 114.25C1454.88 119.949 1418.96 124.96 1382.99 129.949L1380.3 130.323C1345.22 135.187 1310.18 140.045 1278.87 145.518L1278.86 145.519C1245.96 151.1 1223.75 156.524 1208.79 162.089C1191.68 168.501 1184.76 174.967 1183.74 181.751C1182.73 188.495 1187.53 195.722 1194.6 203.981L1194.6 203.986C1198.64 208.769 1199.07 213.232 1196.53 217.313C1194.01 221.371 1188.53 225.117 1180.58 228.584C1164.68 235.524 1138.68 241.443 1105.81 246.41C1040.07 256.348 946.679 262.501 851.206 265.319C779.169 267.46 705.124 268.692 631.55 267.872C614.608 267.685 596.147 267.515 576.57 267.334C497.194 266.603 399.462 265.702 310.175 262.83C254.521 261.04 202.133 258.483 159.506 254.722C138.193 252.842 119.307 250.659 103.667 248.119C88.0509 245.582 75.5905 242.676 67.163 239.322C66.2728 238.972 65.5002 238.568 64.9078 238.089C64.2837 237.583 63.8972 237.022 63.7885 236.453C63.6857 235.914 63.841 235.422 64.1357 234.975C64.4335 234.522 64.9001 234.076 65.5017 233.633C67.8919 231.873 72.7109 229.961 79.1002 227.95C91.9115 223.918 111.312 219.404 131.085 214.878C132.619 214.526 134.155 214.175 135.691 213.824C153.965 209.646 172.156 205.488 185.429 201.71C192.629 199.661 198.347 197.733 201.843 195.986C203.602 195.108 204.741 194.302 205.251 193.588C205.505 193.231 205.569 192.942 205.537 192.728C205.51 192.547 205.415 192.392 205.198 192.213C198.675 186.897 190.098 181.732 180.95 176.59C177.812 174.826 174.602 173.063 171.392 171.299C165.29 167.947 159.185 164.592 153.565 161.232C144.986 156.102 137.358 150.854 132.389 145.388C127.364 139.86 125.102 134.155 127.187 128.24L127.188 128.237C127.75 126.681 127.423 125.219 126.413 123.814C125.381 122.38 123.56 120.894 120.91 119.359C115.596 116.28 107.336 113.224 96.8647 110.189C75.9628 104.132 46.7009 98.2836 15.7108 92.4529C8.39995 91.0774 0.993828 89.7031 -6.41882 88.3275C-30.3997 83.8774 -54.4489 79.4146 -75.5621 74.8589C-89.3836 71.8766 -101.97 68.8497 -112.475 65.7539C-122.949 62.6669 -131.459 59.4818 -137.064 56.1512L-137.064 56.1512C-137.676 55.789 -138.213 55.3132 -138.407 54.7499C-138.588 54.2269 -138.405 53.8067 -138.119 53.4774C-137.546 52.8173 -136.271 52.2008 -134.506 51.6031C-130.936 50.3942 -124.996 49.1505 -117.343 47.8801C-102.02 45.3368 -79.6807 42.6639 -55.2863 39.9552C-44.9602 38.8086 -34.2666 37.6557 -23.579 36.5034C16.266 32.2075 56.0281 27.9204 76.3568 24.006L76.3633 24.0048C82.2066 22.9412 86.3346 21.9116 88.4949 20.9299C89.0312 20.6861 89.4284 20.4531 89.6971 20.2339C89.9722 20.0096 90.077 19.8281 90.0995 19.7051C90.1164 19.613 90.0877 19.5824 90.0655 19.5587L90.0633 19.5564C90.0042 19.4931 89.8293 19.3503 89.4064 19.1507C83.8566 16.6661 79.6789 14.1472 76.8387 11.5816C73.9638 8.9847 72.4931 6.36833 72.3516 3.79301C72.212 1.25009 73.3696 -1.20319 75.5911 -3.57301C77.8171 -5.94765 81.145 -8.27398 85.4332 -10.5495C102.569 -19.6424 135.369 -28.0901 176.066 -35.4477C202.755 -40.2648 235.583 -45.0839 289.637 -48.4165C291.122 -48.5233 293.114 -48.6372 295.096 -48.7507L295.098 -48.7508L295.099 -48.7508M1556.45 83.8699L702.767 -37.8222C637.629 -49.0722 439.977 -56.4625 295.478 -48.0857L295.099 -48.7508M1556.45 83.8699C1554.45 82.2159 1551.65 80.6685 1548.21 79.2064C1544.75 77.7394 1540.58 76.3295 1535.78 74.9708C1526.18 72.2532 1513.99 69.715 1499.86 67.3364C1471.61 62.5784 1435.49 58.4415 1396.65 54.7962C1341.8 49.6483 1281.46 45.476 1230.04 41.9208C1208.63 40.441 1188.78 39.0681 1171.51 37.7763C1153.17 36.3917 1133.84 35.0005 1113.96 33.5699C1020.71 26.8599 915.45 19.285 844.466 7.45976L844.464 7.45938C828.273 4.7978 814.048 1.94199 802.243 -1.19714L802.236 -1.19898C790.643 -4.20796 782.817 -7.3121 776.57 -10.438C772.088 -12.6804 768.43 -14.9246 764.717 -17.2025C763.221 -18.1202 761.716 -19.0434 760.145 -19.9742C749.186 -26.4661 735.803 -32.7961 702.599 -38.4742M1556.45 83.8699L702.599 -38.4742M295.099 -48.7508C367.378 -52.9409 452.941 -53.1873 528.576 -50.9801C604.19 -48.7734 669.949 -44.1129 702.599 -38.4742M295.099 -48.7508L702.599 -38.4742" stroke="#F4F4F5" stroke-width="1.5" stroke-miterlimit="10"/>
<path d="M1216.28 210.313L1216.28 210.317C1220.6 215.384 1221.08 220.114 1218.39 224.445C1215.72 228.752 1209.9 232.729 1201.45 236.411C1184.53 243.781 1156.85 250.065 1121.87 255.339C1051.9 265.891 952.574 272.428 851.328 275.456C774.767 277.747 695.644 279.052 616.95 278.22L616.627 277.554L616.95 278.22C598.682 278.018 578.71 277.835 557.492 277.64C473.568 276.871 370.145 275.923 275.55 272.901C216.295 271.008 160.489 268.3 115.099 264.312C92.4048 262.317 72.3016 260.002 55.666 257.305C39.0552 254.612 25.8216 251.527 16.9029 247.965M1216.28 210.313L135.059 -42.8036C48.4795 -27.2482 -4.0024 -7.06957 42.0378 13.7413L41.8938 14.2952C41.8944 14.2954 41.8948 14.2956 41.8953 14.2958C42.5619 14.6001 42.6453 14.7695 42.6476 14.7744C42.6622 14.8052 42.7167 14.9974 42.3686 15.3331C41.6946 15.9832 39.9927 16.709 37.266 17.4799C31.8649 19.007 22.8301 20.6124 11.3254 22.271C-11.6697 25.5861 -44.3949 29.0947 -77.2962 32.6129L-78.3763 32.7283C-110.91 36.2072 -143.513 39.6933 -166.903 43.0063C-178.723 44.6804 -188.219 46.3142 -194.169 47.8861C-197.128 48.6679 -199.279 49.4511 -200.383 50.2486C-200.921 50.6366 -201.318 51.1011 -201.283 51.6808C-201.264 51.9942 -201.118 52.3289 -200.836 52.6595C-200.564 52.9771 -200.205 53.2464 -199.818 53.4737L-199.818 53.4737C-193.861 56.9904 -184.801 60.3579 -173.635 63.6246C-162.44 66.8998 -149.021 70.1034 -134.282 73.2609C-111.812 78.0746 -86.2195 82.7922 -60.6907 87.4982C-52.7331 88.965 -44.7817 90.4308 -36.933 91.8979C-3.87699 98.077 27.3414 104.278 49.6401 110.703C60.81 113.922 69.6287 117.165 75.3047 120.437C78.1363 122.069 80.0889 123.653 81.1947 125.185C82.2794 126.687 82.627 128.248 82.0223 129.906L82.0221 129.906C79.7409 136.184 82.0834 142.239 87.3732 148.11C92.6061 153.919 100.679 159.499 109.779 164.958C115.8 168.569 122.349 172.172 128.896 175.773C132.242 177.614 135.587 179.454 138.861 181.295C148.586 186.763 157.715 192.255 164.667 197.906C164.911 198.107 165.02 198.283 165.05 198.486C165.085 198.723 165.013 199.035 164.738 199.417C164.189 200.181 162.966 201.04 161.087 201.975C157.349 203.833 151.242 205.885 143.555 208.065C129.32 212.103 109.789 216.552 90.1803 221.018C88.6257 221.372 87.0707 221.727 85.5177 222.081C64.3926 226.898 43.6548 231.7 29.927 235.984C23.0789 238.12 17.9083 240.148 15.3215 242.009C14.6709 242.478 14.1652 242.948 13.838 243.423C13.5144 243.892 13.3388 244.404 13.4293 244.961C13.525 245.55 13.91 246.136 14.5544 246.667C15.1657 247.172 15.9705 247.596 16.9029 247.965M1216.28 210.313C1210.87 204.025 1206.71 198.303 1205.2 192.935C1203.7 187.602 1204.78 182.516 1210.12 177.544C1215.47 172.561 1225.07 167.716 1240.53 162.89C1255.99 158.066 1277.26 153.272 1305.91 148.368C1338.87 142.733 1375.41 137.706 1411.94 132.679L1417.15 131.962C1455.4 126.696 1493.47 121.398 1527.2 115.374C1551.09 111.111 1573.13 106.166 1587.51 100.841C1594.68 98.1824 1600.01 95.4072 1602.68 92.5356C1604.02 91.1001 1604.74 89.5947 1604.62 88.0108C1604.49 86.3887 1603.49 84.7457 1601.6 83.1453L1601.12 83.4906L1216.28 210.313ZM16.9029 247.965C16.9022 247.965 16.9016 247.965 16.9009 247.965L16.9834 247.384L16.905 247.966C16.9043 247.966 16.9036 247.966 16.9029 247.965Z" stroke="#F4F4F5" stroke-width="1.5" stroke-miterlimit="10"/>
</g>
</svg>
