<svg width="133" height="17" viewBox="0 0 133 17" fill="none" xmlns="http://www.w3.org/2000/svg">
<path d="M7.19228 16.4883H0V0.483276H7.19228C8.30537 0.483276 9.36138 0.682276 10.3318 1.1087C11.3021 1.53512 12.1584 2.10368 12.9004 2.81438C13.6425 3.52509 14.2133 4.37793 14.6414 5.37291C15.0695 6.33947 15.2693 7.3913 15.2693 8.47157C15.2693 9.58027 15.0695 10.6037 14.6414 11.5987C14.2133 12.5652 13.6425 13.4181 12.9004 14.1572C12.1584 14.8679 11.3021 15.4365 10.3318 15.8629C9.36138 16.2893 8.30537 16.4883 7.19228 16.4883ZM6.67854 4.40636H4.22404V12.6221H6.67854C7.24936 12.6221 7.79163 12.5084 8.30537 12.3094C8.8191 12.1104 9.24721 11.7977 9.61824 11.4281C9.98927 11.0585 10.2747 10.6321 10.503 10.1204C10.7028 9.6087 10.817 9.09699 10.817 8.52843C10.817 7.95987 10.7028 7.41973 10.503 6.93646C10.2747 6.42475 9.98927 5.99833 9.61824 5.62876C9.24721 5.2592 8.8191 4.97491 8.30537 4.74749C7.82017 4.52006 7.2779 4.40636 6.67854 4.40636Z" fill="white"/>
<path d="M24.6592 0.625427H20.8632L14.9268 16.4315H19.4647L22.7755 6.25419L26.0577 16.4315H30.5956L24.6592 0.625427Z" fill="white"/>
<path d="M42.4971 16.4883L39.7002 11.5418H36.9888L37.0173 16.4883H32.5935V0.483276H40.642C41.0416 0.483276 41.4126 0.568566 41.8122 0.710706C42.2117 0.852847 42.6113 1.05184 42.9823 1.27927C43.3534 1.50669 43.6959 1.79097 44.0098 2.10368C44.3238 2.41639 44.6092 2.7291 44.809 3.0418C45.0944 3.4398 45.2941 3.89465 45.4369 4.43479C45.5796 4.97492 45.6652 5.4582 45.6652 5.94147C45.6652 6.73746 45.4654 7.47659 45.0944 8.15886C44.7233 8.84113 44.2096 9.4097 43.5532 9.89297L47.3205 16.4883H42.4971ZM39.3577 4.06522H36.8461V7.50502H39.3577C39.6145 7.50502 39.8429 7.44816 40.0712 7.36288C40.2995 7.27759 40.4993 7.16388 40.642 6.99332C40.8132 6.82275 40.9274 6.65217 41.0416 6.45317C41.1272 6.25418 41.1843 6.02675 41.1843 5.7709C41.1843 5.51505 41.1272 5.28763 41.0416 5.08863C40.956 4.88963 40.8132 4.69064 40.642 4.5485C40.4708 4.37793 40.271 4.26421 40.0712 4.17893C39.8429 4.12207 39.6145 4.06522 39.3577 4.06522Z" fill="white"/>
<path d="M56.2539 8.07359L62.6185 16.5167H57.3955L53.0003 11.1438V16.5167H48.605V0.511719H53.0003V5.88462L57.3955 0.511719H62.8183L56.2539 8.07359Z" fill="white"/>
<path d="M77.2598 17C76.0611 17 74.9766 16.7726 73.9491 16.3177C72.9216 15.8629 72.0369 15.2659 71.2663 14.4699C70.4957 13.7023 69.8963 12.7926 69.4682 11.7692C69.0401 10.7458 68.8118 9.66555 68.8118 8.5C68.8118 7.33444 69.0401 6.25418 69.4682 5.23077C69.8963 4.20735 70.5242 3.29766 71.2663 2.5301C72.0369 1.76254 72.9216 1.13712 73.9491 0.682272C74.9766 0.227423 76.0897 0 77.2598 0C78.3444 0 79.3719 0.198998 80.3708 0.596991C81.3697 0.994985 82.283 1.56355 83.1107 2.30268L79.8 5.23077C79.0008 4.6622 78.1446 4.37792 77.2884 4.37792C76.7176 4.37792 76.1753 4.49164 75.6616 4.71906C75.1764 4.94649 74.7483 5.23076 74.3772 5.62876C74.0062 6.02675 73.7493 6.45318 73.521 6.96488C73.3212 7.47659 73.207 7.98829 73.207 8.52843C73.207 9.09699 73.3212 9.63712 73.521 10.1204C73.7208 10.6321 74.0062 11.0585 74.3772 11.4281C74.7483 11.7976 75.1478 12.1104 75.6616 12.3378C76.1467 12.5652 76.689 12.6789 77.2598 12.6789C77.9163 12.6789 78.5442 12.5368 79.115 12.2241C79.6858 11.9114 80.1995 11.4849 80.6276 10.9448L84.0525 13.7023C83.1963 14.7542 82.1974 15.5502 81.0272 16.1187C79.8285 16.7157 78.5727 17 77.2598 17Z" fill="white"/>
<path d="M92.4436 17C91.2449 17 90.1318 16.7725 89.1043 16.3461C88.0768 15.9197 87.1635 15.2943 86.3929 14.5551C85.6223 13.7876 85.023 12.9063 84.5663 11.8545C84.1097 10.8311 83.8813 9.72238 83.8813 8.55683C83.8813 7.39128 84.1097 6.28258 84.5663 5.25917C85.023 4.23576 85.6223 3.32606 86.3929 2.5585C87.1635 1.79094 88.0768 1.19395 89.1043 0.739105C90.1318 0.284255 91.2449 0.0568237 92.4436 0.0568237C93.6138 0.0568237 94.7268 0.284255 95.7543 0.739105C96.8103 1.19395 97.6951 1.79094 98.4657 2.5585C99.2363 3.32606 99.8356 4.20733 100.292 5.25917C100.749 6.28258 100.977 7.39128 100.977 8.55683C100.977 9.72238 100.749 10.8311 100.292 11.8545C99.8356 12.8779 99.2363 13.7876 98.4657 14.5551C97.6951 15.3227 96.7818 15.9197 95.7543 16.3461C94.7268 16.7725 93.6138 17 92.4436 17ZM92.4436 4.15048C91.8442 4.15048 91.2734 4.26418 90.7597 4.52004C90.2459 4.74746 89.7893 5.0886 89.4183 5.48659C89.0472 5.88458 88.7618 6.33943 88.5335 6.87956C88.3337 7.4197 88.2196 7.95984 88.2196 8.55683C88.2196 9.12539 88.3337 9.69395 88.5335 10.2341C88.7333 10.7742 89.0472 11.2291 89.4183 11.6271C89.7893 12.0251 90.2459 12.3378 90.7597 12.5936C91.2734 12.821 91.8442 12.9632 92.4436 12.9632C93.0429 12.9632 93.6138 12.8495 94.1275 12.5936C94.6412 12.3662 95.0979 12.0251 95.4689 11.6271C95.8399 11.2291 96.1253 10.7742 96.3537 10.2341C96.5535 9.69395 96.6676 9.15382 96.6676 8.55683C96.6676 7.95984 96.5535 7.4197 96.3537 6.87956C96.1539 6.33943 95.8399 5.88458 95.4689 5.48659C95.0979 5.0886 94.6412 4.77589 94.1275 4.52004C93.6138 4.26418 93.0715 4.15048 92.4436 4.15048Z" fill="white"/>
<path d="M110.253 16.4883H103.061V0.483276H110.253C111.366 0.483276 112.422 0.682276 113.393 1.1087C114.363 1.53512 115.219 2.10368 115.961 2.81438C116.703 3.52509 117.274 4.37793 117.702 5.37291C118.13 6.33947 118.33 7.3913 118.33 8.47157C118.33 9.58027 118.13 10.6037 117.702 11.5987C117.274 12.5652 116.703 13.4181 115.961 14.1572C115.219 14.8679 114.363 15.4365 113.393 15.8629C112.422 16.2893 111.366 16.4883 110.253 16.4883ZM109.768 4.40636H107.313V12.6221H109.768C110.339 12.6221 110.881 12.5084 111.395 12.3094C111.908 12.1104 112.337 11.7977 112.708 11.4281C113.079 11.0585 113.364 10.6321 113.592 10.1204C113.821 9.6087 113.906 9.09699 113.906 8.52843C113.906 7.95987 113.792 7.41973 113.592 6.93646C113.393 6.42475 113.079 5.99833 112.708 5.62876C112.337 5.2592 111.908 4.97491 111.395 4.74749C110.881 4.52006 110.339 4.40636 109.768 4.40636Z" fill="white"/>
<path d="M120.214 0.625427V4.34951H133V0.625427H120.214ZM120.214 6.53847V10.49H132.343V6.53847H120.214ZM120.214 12.7074V16.4315H133V12.7074H120.214Z" fill="white"/>
</svg>
