<svg width="118" height="40" viewBox="0 0 118 40" fill="none" xmlns="http://www.w3.org/2000/svg">
<path d="M15.237 35.3828L32 18.4578H19.8112L9.14453 29.2289L15.237 35.3828Z" fill="#CE1126"/>
<path d="M0 19.9981L19.8112 0H32L6.09633 26.1519L0 19.9981Z" fill="#007A5E"/>
<path d="M19.8112 39.9961H32.0001L21.3334 29.2288L15.2371 35.3826L19.8112 39.9961Z" fill="#FCD116"/>
<path d="M21.3334 29.2288L15.2371 35.3826L24.2785 32.221L21.3334 29.2288Z" fill="url(#paint0_linear_0_70)"/>
<path d="M9.14453 29.2249L15.2409 23.071L21.3372 29.2249L15.2409 35.3826L9.14453 29.2249Z" fill="#CE1126"/>
<path d="M44 10.498H54.7767V12.5521H46.258V18.9197H53.9556V20.9737H46.258V28.9845H44.1026V10.498H44Z" fill="#585858"/>
<path d="M57.3425 10.498H59.4979V29.0872H57.3425V10.498Z" fill="#585858"/>
<path d="M67.6062 29.4981C65.964 29.4981 64.835 28.9846 63.9113 28.0602C63.0902 27.1359 62.6797 25.8008 62.6797 24.1575V15.8386H64.835V23.8494C64.835 25.0819 65.1429 26.0062 65.6561 26.6224C66.2719 27.2386 66.9904 27.5467 68.0167 27.5467C68.7352 27.5467 69.4536 27.3413 69.9668 26.9305C70.5826 26.5197 70.9931 26.0062 71.301 25.39C71.609 24.7738 71.8142 24.0548 71.8142 23.3359V15.8386H73.9696V29.0873H71.9169V27.1359H71.8142C71.4037 27.7521 70.8905 28.3684 70.0694 28.7792C69.351 29.2927 68.5299 29.4981 67.6062 29.4981Z" fill="#585858"/>
<path d="M82.5907 29.2927C82.0776 29.2927 81.5644 29.19 81.0512 28.9846C80.6407 28.7792 80.2301 28.5738 79.9222 28.2657C79.6143 27.9576 79.3064 27.5468 79.1011 27.136C78.8959 26.7251 78.7932 26.2116 78.7932 25.5954V17.79H76.4326V15.8387H78.7932V12.1414H80.9486V15.8387H84.1303V17.79H80.9486V24.9792C80.9486 25.6981 81.0512 26.2116 81.3591 26.6224C81.667 27.0332 82.1802 27.2387 82.796 27.2387C83.3092 27.2387 83.8224 27.136 84.2329 26.8278V28.9846C83.925 29.0873 83.7197 29.19 83.4118 29.2927C83.4118 29.2927 83.0013 29.2927 82.5907 29.2927Z" fill="#585858"/>
<path d="M91.9306 29.2927C91.4175 29.2927 90.9043 29.19 90.3911 28.9846C89.9806 28.7792 89.57 28.5738 89.2621 28.2657C88.9542 27.9576 88.6463 27.5468 88.441 27.136C88.2358 26.7251 88.1331 26.2116 88.1331 25.5954V17.79H85.9778V15.8387H88.3384V12.1414H90.4937V15.8387H93.6754V17.79H90.4937V24.9792C90.4937 25.6981 90.5964 26.2116 90.9043 26.6224C91.2122 27.0332 91.7254 27.2387 92.3412 27.2387C92.8543 27.2387 93.3675 27.136 93.7781 26.8278V28.9846C93.4702 29.0873 93.2649 29.19 92.957 29.2927C92.7517 29.2927 92.3412 29.2927 91.9306 29.2927Z" fill="#585858"/>
<path d="M101.681 29.4981C100.449 29.4981 99.3203 29.19 98.294 28.5738C97.2676 27.9575 96.5492 27.1359 95.9334 26.1089C95.4202 25.0819 95.1123 23.8494 95.1123 22.5143C95.1123 21.2819 95.4202 20.0494 95.9334 19.0224C96.4466 17.9954 97.2676 17.0711 98.1914 16.4548C99.1151 15.8386 100.244 15.5305 101.578 15.5305C102.913 15.5305 104.042 15.8386 104.965 16.4548C105.889 17.0711 106.607 17.79 107.121 18.817C107.634 19.844 107.942 20.9738 107.942 22.3089C107.942 22.617 107.942 22.8224 107.839 23.0278H97.2676C97.3703 24.0548 97.5755 24.8765 97.9861 25.5954C98.3966 26.3143 99.0124 26.8278 99.6283 27.1359C100.347 27.444 100.963 27.6494 101.681 27.6494C103.426 27.6494 104.657 26.8278 105.581 25.2873L107.429 26.2116C106.813 27.2386 106.094 28.163 105.068 28.7792C104.247 29.19 103.118 29.4981 101.681 29.4981ZM105.478 21.0765C105.478 20.563 105.273 19.9467 104.965 19.4332C104.657 18.9197 104.247 18.4062 103.631 17.9954C103.015 17.5846 102.297 17.3792 101.373 17.3792C100.347 17.3792 99.423 17.6873 98.7045 18.4062C97.9861 19.0224 97.5755 19.9467 97.2676 21.0765H105.478Z" fill="#585858"/>
<path d="M110.405 15.8386H112.458V17.9954H112.56C112.868 17.2765 113.279 16.6602 114.1 16.2494C114.818 15.7359 115.639 15.5305 116.461 15.5305C117.076 15.5305 117.589 15.6332 118 15.8386V18.2008C117.487 17.8927 116.871 17.79 116.153 17.79C115.537 17.79 114.921 17.9954 114.408 18.3035C113.895 18.7143 113.484 19.1251 113.074 19.7413C112.766 20.3575 112.56 20.9738 112.56 21.6927V29.0873H110.405V15.8386Z" fill="#585858"/>
<defs>
<linearGradient id="paint0_linear_0_70" x1="-956.32" y1="-432.412" x2="-956.142" y2="-432.589" gradientUnits="userSpaceOnUse">
<stop stop-color="#1A237E" stop-opacity="0.4"/>
<stop offset="1" stop-color="#1A237E" stop-opacity="0"/>
</linearGradient>
</defs>
</svg>
